<svg width="21" height="21" viewBox="0 0 21 21" fill="none" xmlns="http://www.w3.org/2000/svg">
<path d="M14.0286 3.99376C11.8277 3.99376 10.01 2.58749 7.24286 2.58749C6.21793 2.58749 5.29982 2.76473 4.44816 3.07317C4.56619 2.76974 4.61642 2.44483 4.59544 2.12057C4.52266 0.970906 3.56525 0.048744 2.39602 0.00192638C1.08203 -0.0507131 0 0.982267 0 2.26405C0 3.03327 0.390055 3.71245 0.985714 4.1216V19.7297C0.985714 20.2656 1.42703 20.7 1.97143 20.7H2.62857C3.17297 20.7 3.61429 20.2656 3.61429 19.7297V15.9131C4.77706 15.4254 6.22569 15.0187 8.31429 15.0187C10.5152 15.0187 12.3329 16.425 15.1 16.425C17.0784 16.425 18.6595 15.7662 20.1314 14.7731C20.4881 14.5325 20.7 14.133 20.7 13.7075V3.87902C20.7 2.93324 19.7032 2.30751 18.8319 2.70591C17.4216 3.35068 15.6918 3.99376 14.0286 3.99376Z" fill="white"/>
</svg>
