<?xml version="1.0" encoding="UTF-8"?>
<svg width="55px" height="62px" viewBox="0 0 55 62" version="1.1" xmlns="http://www.w3.org/2000/svg" xmlns:xlink="http://www.w3.org/1999/xlink">
    <!-- Generator: Sketch 50.2 (55047) - http://www.bohemiancoding.com/sketch -->
    <title>Shape</title>
    <desc>Created with Sketch.</desc>
    <defs>
        <filter x="-6.6%" y="-10.9%" width="113.3%" height="126.7%" filterUnits="objectBoundingBox" id="filter-1">
            <feOffset dx="0" dy="5" in="SourceAlpha" result="shadowOffsetOuter1"></feOffset>
            <feGaussianBlur stdDeviation="10" in="shadowOffsetOuter1" result="shadowBlurOuter1"></feGaussianBlur>
            <feColorMatrix values="0 0 0 0 0   0 0 0 0 0   0 0 0 0 0  0 0 0 0.5 0" type="matrix" in="shadowBlurOuter1" result="shadowMatrixOuter1"></feColorMatrix>
            <feMerge>
                <feMergeNode in="shadowMatrixOuter1"></feMergeNode>
                <feMergeNode in="SourceGraphic"></feMergeNode>
            </feMerge>
        </filter>
        <path d="M33.9090909,48.390625 L33.9090909,49.59375 C33.9090909,50.0427305 33.6244318,50.4245078 33.2272727,50.5660898 L33.2272727,50.96875 C33.2272727,51.5383008 32.7693892,52 32.2045455,52 L28.7954545,52 C28.2306108,52 27.7727273,51.5383008 27.7727273,50.96875 L27.7727273,50.5660898 C27.3755682,50.4245078 27.0909091,50.0427305 27.0909091,49.59375 L27.0909091,48.390625 C27.0909091,48.1058711 27.3198722,47.875 27.6022727,47.875 L33.3977273,47.875 C33.6801278,47.875 33.9090909,48.1058711 33.9090909,48.390625 Z M27.7727273,37.5625 C27.7727273,36.0461328 28.9961648,34.8125 30.5,34.8125 C30.8765767,34.8125 31.1818182,34.5046719 31.1818182,34.125 C31.1818182,33.7453281 30.8765767,33.4375 30.5,33.4375 C28.2442472,33.4375 26.4090909,35.2879492 26.4090909,37.5625 C26.4090909,37.9421719 26.714375,38.25 27.0909091,38.25 C27.4674432,38.25 27.7727273,37.9421719 27.7727273,37.5625 Z M30.5,32.0625 C33.514233,32.0625 35.9545455,34.5226328 35.9545455,37.5625 C35.9545455,40.8969609 34.3615199,40.1611211 32.5036932,44.4375 L28.4963068,44.4375 C26.6357102,40.1548047 25.0454545,40.9084336 25.0454545,37.5625 C25.0454545,34.5231055 27.4852557,32.0625 30.5,32.0625 Z M30.5,30 C26.3581676,30 23,33.3860664 23,37.5625 C23,41.9337539 25.2029972,41.4959023 26.8572159,45.8414609 C27.0084943,46.2388789 27.388608,46.5 27.8107386,46.5 L33.1892187,46.5 C33.6113494,46.5 33.9914631,46.2388359 34.1427415,45.8414609 C35.7970028,41.4959023 38,41.9337539 38,37.5625 C38,33.3860664 34.6418324,30 30.5,30 Z" id="path-2"></path>
        <filter x="-70.0%" y="-47.7%" width="240.0%" height="195.5%" filterUnits="objectBoundingBox" id="filter-3">
            <feOffset dx="0" dy="0" in="SourceAlpha" result="shadowOffsetOuter1"></feOffset>
            <feGaussianBlur stdDeviation="3.5" in="shadowOffsetOuter1" result="shadowBlurOuter1"></feGaussianBlur>
            <feColorMatrix values="0 0 0 0 0.952941176   0 0 0 0 0.776470588   0 0 0 0 0.00392156863  0 0 0 0.542147871 0" type="matrix" in="shadowBlurOuter1"></feColorMatrix>
        </filter>
    </defs>
    <g id="Page-1" stroke="none" stroke-width="1" fill="none" fill-rule="evenodd">
        <g id="Artboard" transform="translate(-444.000000, -310.000000)" fill-rule="nonzero">
            <g id="Group" filter="url(#filter-1)" transform="translate(441.000000, 295.000000)">
                <g id="Shape">
                    <use fill="black" fill-opacity="1" filter="url(#filter-3)" xlink:href="#path-2"></use>
                    <use fill="#F3C601" fill-rule="evenodd" xlink:href="#path-2"></use>
                </g>
            </g>
        </g>
    </g>
</svg>