<svg width="9" height="10" viewBox="0 0 9 10" fill="none" xmlns="http://www.w3.org/2000/svg">
<path d="M8.03571 4.375H7.55357V2.96875C7.55357 1.33203 6.18348 0 4.5 0C2.81652 0 1.44643 1.33203 1.44643 2.96875V4.375H0.964286C0.43192 4.375 0 4.79492 0 5.3125V9.0625C0 9.58008 0.43192 10 0.964286 10H8.03571C8.56808 10 9 9.58008 9 9.0625V5.3125C9 4.79492 8.56808 4.375 8.03571 4.375ZM5.94643 4.375H3.05357V2.96875C3.05357 2.19336 3.70246 1.5625 4.5 1.5625C5.29754 1.5625 5.94643 2.19336 5.94643 2.96875V4.375Z" fill="#B7B7B7"/>
</svg>
