<svg width="23" height="17" viewBox="0 0 23 17" fill="none" xmlns="http://www.w3.org/2000/svg">
<path opacity="1" fill-rule="evenodd" clip-rule="evenodd" d="M14.3499 9.31463C13.542 9.89732 12.3637 10.7472 11.5 10.7333C10.6363 10.7472 9.45798 9.89732 8.65013 9.31463C8.48315 9.1942 8.33201 9.08518 8.20274 8.99756C2.67775 5.25539 1.88376 4.67545 0.70273 3.81281C0.609499 3.74471 0.513855 3.67486 0.413281 3.60154C0.152734 3.40868 0 3.11938 0 2.80912V2.0125C0 0.901433 0.965821 0 2.15625 0H20.8438C22.0342 0 23 0.901433 23 2.0125V2.80912C23 3.11938 22.8473 3.41287 22.5867 3.60154C22.5097 3.65796 22.4355 3.71232 22.3631 3.76539C21.1439 4.65887 20.4242 5.18636 14.7973 8.99756C14.668 9.08518 14.5169 9.1942 14.3499 9.31463ZM23 5.51342C23 5.30797 22.7395 5.18639 22.5643 5.31636C21.558 6.04589 20.2283 6.97668 15.6463 10.0835C15.5073 10.1781 15.3516 10.2905 15.1818 10.413C14.2379 11.0945 12.8593 12.0899 11.5 12.0792C10.147 12.0863 8.79084 11.1096 7.83192 10.419C7.66057 10.2956 7.5019 10.1814 7.35821 10.0835C2.77617 6.97668 1.44199 6.05009 0.435742 5.32055C0.256055 5.19058 0 5.30797 0 5.51761V14.0875C0 15.1986 0.965821 16.1 2.15625 16.1H20.8438C22.0342 16.1 23 15.1986 23 14.0875V5.51342Z" fill="white"/>
</svg>
