<svg width="15" height="15" viewBox="0 0 15 15" fill="none" xmlns="http://www.w3.org/2000/svg">
<path d="M13.7812 0.0442111L4.875 2.85666C4.48535 2.97971 4.21875 3.34005 4.21875 3.7502V11.502C3.80566 11.3438 3.3252 11.2501 2.8125 11.2501C1.25977 11.2501 0 12.0909 0 13.125C0 14.1592 1.25977 15 2.8125 15C4.36523 15 5.625 14.1592 5.625 13.125V6.46011L13.5938 3.94356V9.62705C13.1807 9.46885 12.7002 9.3751 12.1875 9.3751C10.6348 9.3751 9.375 10.2159 9.375 11.2501C9.375 12.2842 10.6348 13.125 12.1875 13.125C13.7402 13.125 15 12.2842 15 11.2501V0.93775C15 0.302019 14.3818 -0.146215 13.7812 0.0442111Z" fill="#B8BBBF"/>
</svg>
