<svg xmlns="http://www.w3.org/2000/svg" xmlns:xlink="http://www.w3.org/1999/xlink" width="25" height="25" viewBox="0 0 64 64" version="1.1">
<g id="surface9225978">
<path style=" stroke:none;fill-rule:nonzero;fill:rgb(80%,80%,80%);fill-opacity:1;" d="M 39 13 C 36.667969 13 34.46875 13.578125 32.535156 14.589844 C 32.207031 14.761719 32 15.101562 32 15.472656 L 32 42 C 32 42.550781 32.449219 43 33 43 L 55 43 C 59.957031 43 64 38.957031 64 34 C 64 29.042969 59.957031 25 55 25 C 54.230469 25 53.542969 25.242188 52.828125 25.425781 C 52.039062 18.453125 46.179688 13 39 13 Z M 39 15 C 45.511719 15 50.777344 20.164062 50.976562 26.625 C 50.988281 26.953125 51.160156 27.253906 51.433594 27.433594 C 51.707031 27.609375 52.050781 27.644531 52.355469 27.519531 C 53.175781 27.1875 54.066406 27 55 27 C 58.878906 27 62 30.121094 62 34 C 62 37.878906 58.878906 41 55 41 L 34 41 L 34 16.15625 C 35.53125 15.449219 37.203125 15 39 15 Z M 28.984375 15.988281 C 28.433594 15.996094 27.992188 16.449219 28 17 L 28 42 C 27.996094 42.359375 28.183594 42.695312 28.496094 42.878906 C 28.808594 43.058594 29.191406 43.058594 29.503906 42.878906 C 29.816406 42.695312 30.003906 42.359375 30 42 L 30 17 C 30.003906 16.730469 29.898438 16.46875 29.707031 16.277344 C 29.515625 16.085938 29.253906 15.980469 28.984375 15.988281 Z M 20.984375 18.988281 C 20.433594 18.996094 19.992188 19.449219 20 20 L 20 42 C 19.996094 42.359375 20.183594 42.695312 20.496094 42.878906 C 20.808594 43.058594 21.191406 43.058594 21.503906 42.878906 C 21.816406 42.695312 22.003906 42.359375 22 42 L 22 20 C 22.003906 19.730469 21.898438 19.46875 21.707031 19.277344 C 21.515625 19.085938 21.253906 18.980469 20.984375 18.988281 Z M 16.984375 19.988281 C 16.433594 19.996094 15.992188 20.449219 16 21 L 16 42 C 15.996094 42.359375 16.183594 42.695312 16.496094 42.878906 C 16.808594 43.058594 17.191406 43.058594 17.503906 42.878906 C 17.816406 42.695312 18.003906 42.359375 18 42 L 18 21 C 18.003906 20.730469 17.898438 20.46875 17.707031 20.277344 C 17.515625 20.085938 17.253906 19.980469 16.984375 19.988281 Z M 24.984375 19.988281 C 24.433594 19.996094 23.992188 20.449219 24 21 L 24 42 C 23.996094 42.359375 24.183594 42.695312 24.496094 42.878906 C 24.808594 43.058594 25.191406 43.058594 25.503906 42.878906 C 25.816406 42.695312 26.003906 42.359375 26 42 L 26 21 C 26.003906 20.730469 25.898438 20.46875 25.707031 20.277344 C 25.515625 20.085938 25.253906 19.980469 24.984375 19.988281 Z M 12.984375 22.988281 C 12.433594 22.996094 11.992188 23.449219 12 24 L 12 42 C 11.996094 42.359375 12.183594 42.695312 12.496094 42.878906 C 12.808594 43.058594 13.191406 43.058594 13.503906 42.878906 C 13.816406 42.695312 14.003906 42.359375 14 42 L 14 24 C 14.003906 23.730469 13.898438 23.46875 13.707031 23.277344 C 13.515625 23.085938 13.253906 22.980469 12.984375 22.988281 Z M 4.984375 26.988281 C 4.433594 26.996094 3.992188 27.449219 4 28 L 4 41 C 3.996094 41.359375 4.183594 41.695312 4.496094 41.878906 C 4.808594 42.058594 5.191406 42.058594 5.503906 41.878906 C 5.816406 41.695312 6.003906 41.359375 6 41 L 6 28 C 6.003906 27.730469 5.898438 27.46875 5.707031 27.277344 C 5.515625 27.085938 5.253906 26.980469 4.984375 26.988281 Z M 8.984375 26.988281 C 8.433594 26.996094 7.992188 27.449219 8 28 L 8 42 C 7.996094 42.359375 8.183594 42.695312 8.496094 42.878906 C 8.808594 43.058594 9.191406 43.058594 9.503906 42.878906 C 9.816406 42.695312 10.003906 42.359375 10 42 L 10 28 C 10.003906 27.730469 9.898438 27.46875 9.707031 27.277344 C 9.515625 27.085938 9.253906 26.980469 8.984375 26.988281 Z M 0.984375 29.988281 C 0.433594 29.996094 -0.0078125 30.449219 0 31 L 0 39 C -0.00390625 39.359375 0.183594 39.695312 0.496094 39.878906 C 0.808594 40.058594 1.191406 40.058594 1.503906 39.878906 C 1.816406 39.695312 2.003906 39.359375 2 39 L 2 31 C 2.003906 30.730469 1.898438 30.46875 1.707031 30.277344 C 1.515625 30.085938 1.253906 29.980469 0.984375 29.988281 Z M 12 47 C 11.449219 47 11 47.445312 11 48 L 11 50 C 11 50.554688 11.449219 51 12 51 C 12.550781 51 13 50.554688 13 50 L 13 48 C 13 47.445312 12.550781 47 12 47 Z M 17 47 C 16.449219 47 16 47.445312 16 48 L 16 50 C 16 50.554688 16.449219 51 17 51 C 17.550781 51 18 50.554688 18 50 L 18 48 C 18 47.445312 17.550781 47 17 47 Z M 22 47 C 21.449219 47 21 47.445312 21 48 L 21 50 C 21 50.554688 21.449219 51 22 51 C 22.550781 51 23 50.554688 23 50 L 23 48 C 23 47.445312 22.550781 47 22 47 Z M 27 47 C 26.449219 47 26 47.445312 26 48 L 26 50 C 26 50.554688 26.449219 51 27 51 C 27.550781 51 28 50.554688 28 50 L 28 48 C 28 47.445312 27.550781 47 27 47 Z M 32 47 C 31.449219 47 31 47.445312 31 48 L 31 50 C 31 50.554688 31.449219 51 32 51 C 32.550781 51 33 50.554688 33 50 L 33 48 C 33 47.445312 32.550781 47 32 47 Z M 37 47 C 36.449219 47 36 47.445312 36 48 L 36 50 C 36 50.554688 36.449219 51 37 51 C 37.550781 51 38 50.554688 38 50 L 38 48 C 38 47.445312 37.550781 47 37 47 Z M 42 47 C 41.449219 47 41 47.445312 41 48 L 41 50 C 41 50.554688 41.449219 51 42 51 C 42.550781 51 43 50.554688 43 50 L 43 48 C 43 47.445312 42.550781 47 42 47 Z M 47 47 C 46.449219 47 46 47.445312 46 48 L 46 50 C 46 50.554688 46.449219 51 47 51 C 47.550781 51 48 50.554688 48 50 L 48 48 C 48 47.445312 47.550781 47 47 47 Z M 52 47 C 51.449219 47 51 47.445312 51 48 L 51 50 C 51 50.554688 51.449219 51 52 51 C 52.550781 51 53 50.554688 53 50 L 53 48 C 53 47.445312 52.550781 47 52 47 Z M 52 47 "/>
</g>
</svg>
