<svg width="21" height="20" viewBox="0 0 21 20" fill="none" xmlns="http://www.w3.org/2000/svg">
<path fill-rule="evenodd" clip-rule="evenodd" d="M0.540771 8.75C0.540771 3.91747 5.11819 -0.00012207 10.7653 -0.00012207C16.412 -0.00012207 20.9898 3.91747 20.9898 8.75C20.9898 13.5828 16.412 17.4999 10.7653 17.4999C10.3719 17.4999 9.98367 17.4809 9.60185 17.4439L4.37501 20V15.581C2.03746 13.9775 0.540771 11.5134 0.540771 8.75ZM1.81886 8.75C1.81886 4.6083 5.82429 1.25002 10.7653 1.25002C15.7061 1.25002 19.7117 4.6083 19.7117 8.75C19.7117 12.8919 15.7061 16.2502 10.7653 16.2502C8.95421 16.2502 7.26886 15.799 5.86036 15.0234L5.65296 15.1249V14.9057C3.33526 13.5503 1.81886 11.2985 1.81886 8.75ZM7.69985 11.875L7.18573 11.7492C7.03106 11.6351 6.93105 11.4539 6.93105 11.2501C6.93105 10.9047 7.21726 10.6249 7.57008 10.6249H13.9604C14.3133 10.6249 14.5994 10.9047 14.5994 11.2501C14.5994 11.5948 14.3133 11.875 13.9604 11.875H7.69985ZM15.2384 6.87511H6.29199C5.93883 6.87511 5.65296 7.15444 5.65296 7.50009C5.65296 7.84483 5.93883 8.12481 6.29199 8.12481H15.2384C15.5914 8.12481 15.8774 7.84483 15.8774 7.50009C15.8774 7.15444 15.5914 6.87511 15.2384 6.87511Z" fill="black"/>
</svg>
