<svg width="11" height="13" viewBox="0 0 11 13" fill="none" xmlns="http://www.w3.org/2000/svg">
<path fill-rule="evenodd" clip-rule="evenodd" d="M8.008 4.60511C7.91657 4.34947 10.441 1.98679 8.96908 0.0723382C8.62473 -0.375022 7.45594 2.21591 5.79632 3.38911C4.88056 4.03579 2.75002 5.41354 2.75002 6.17503V11.1049C2.75002 12.0208 6.12832 12.9907 8.69545 12.9907C9.63673 12.9907 10.9999 6.81151 10.9999 5.83026C10.9999 4.84445 8.09808 4.86162 8.008 4.60511ZM2.06246 4.67359C1.61008 4.67359 0 4.96183 0 6.92389V10.4169C0 12.3775 1.61008 12.5938 2.06246 12.5938C2.51416 12.5938 1.37501 12.1814 1.37501 10.9654V6.37327C1.37501 5.09943 2.51416 4.67359 2.06246 4.67359Z" fill="white"/>
</svg>
