<svg width="12" height="11" viewBox="0 0 12 11" fill="none" xmlns="http://www.w3.org/2000/svg">
<path d="M11.8434 3.81236L8.84331 6.73391C8.52708 7.04189 8 6.81356 8 6.35905V4.81298C4.98802 4.83382 3.71738 5.56736 4.56719 8.49439C4.66058 8.81607 4.29956 9.06516 4.04623 8.86671C3.23442 8.23077 2.5 7.01439 2.5 5.78658C2.5 2.69419 4.94998 2.08053 8 2.06308V0.515887C8 0.0609775 8.52744 -0.166628 8.84331 0.141028L11.8434 3.06264C12.0521 3.26595 12.0523 3.60888 11.8434 3.81236ZM8 8.14533V9.625H1.33333V2.75H2.39408C2.42775 2.74998 2.46106 2.74294 2.49202 2.72931C2.52298 2.71567 2.55095 2.69572 2.57425 2.67066C2.88577 2.33619 3.24585 2.07146 3.63704 1.86122C3.86892 1.73659 3.783 1.375 3.52152 1.375H1C0.447708 1.375 0 1.8367 0 2.40625V9.96875C0 10.5383 0.447708 11 1 11H8.33333C8.88562 11 9.33333 10.5383 9.33333 9.96875V8.06081C9.33333 7.88275 9.16256 7.75861 8.99977 7.81799C8.77153 7.90124 8.52712 7.92613 8.2875 7.89055C8.13604 7.86807 8 7.98753 8 8.14533Z" fill="#666666"/>
</svg>
