<svg width="19" height="20" viewBox="0 0 19 20" fill="none" xmlns="http://www.w3.org/2000/svg">
<path fill-rule="evenodd" clip-rule="evenodd" d="M9.50031 -0.00012207C4.83662 -0.00012207 3.80059 2.85666 3.80059 6.38102C3.80059 9.0925 5.14218 11.9905 7.32534 13.1824C6.1855 13.4279 1.52486 14.4554 0.978581 14.9607C-0.0110864 15.8761 -0.412206 18.6253 0.577598 20L9.54072 19.9989L18.428 20C19.4101 18.6253 19.0188 15.8761 18.0368 14.9607C17.5044 14.4649 12.7183 13.3946 11.6967 13.1705C13.867 11.9714 15.1997 9.08355 15.1997 6.38102C15.1997 2.85666 14.1636 -0.00012207 9.50031 -0.00012207ZM10.7675 13.561C11.0919 13.4651 11.402 13.3334 11.6967 13.1705C11.5738 13.1436 11.5054 13.1289 11.5054 13.1289H10.7675V12.2462C12.7382 11.4306 13.9279 8.77802 13.9279 6.40296C13.9279 3.55444 13.1899 1.24547 9.50031 1.24547C5.81074 1.24547 5.07249 3.55444 5.07249 6.40296C5.07249 8.77928 6.26335 11.4334 8.23609 12.2475V13.1289H7.57611C7.57611 13.1289 7.48546 13.1479 7.32534 13.1824C7.61455 13.3403 7.91852 13.4683 8.23609 13.5619V14.3784H7.7099C5.29405 14.8903 2.44127 15.605 1.7926 15.9261C1.37913 16.3987 1.11499 17.8051 1.3717 18.7498L9.54049 18.7487L17.6313 18.7498C17.8865 17.8051 17.6302 16.4024 17.2228 15.9276C16.5714 15.6111 13.7564 14.8959 11.3689 14.3784H10.7675V13.561Z" fill="black"/>
</svg>
