<?xml version="1.0" encoding="UTF-8" standalone="no"?>
<svg
   xmlns:dc="http://purl.org/dc/elements/1.1/"
   xmlns:cc="http://creativecommons.org/ns#"
   xmlns:rdf="http://www.w3.org/1999/02/22-rdf-syntax-ns#"
   xmlns:svg="http://www.w3.org/2000/svg"
   xmlns="http://www.w3.org/2000/svg"
   xmlns:sodipodi="http://sodipodi.sourceforge.net/DTD/sodipodi-0.dtd"
   xmlns:inkscape="http://www.inkscape.org/namespaces/inkscape"
   id="svg2"
   height="14"
   width="30.553"
   version="1.1"
   viewBox="0 0 30.553101 14"
   sodipodi:docname="certified_pro_stamp_clipped_black.svg"
   inkscape:version="0.92.5 (2060ec1f9f, 2020-04-08)">
  <metadata
     id="metadata9">
    <rdf:RDF>
      <cc:Work
         rdf:about="">
        <dc:format>image/svg+xml</dc:format>
        <dc:type
           rdf:resource="http://purl.org/dc/dcmitype/StillImage" />
      </cc:Work>
    </rdf:RDF>
  </metadata>
  <defs
     id="defs7" />
  <sodipodi:namedview
     pagecolor="#ffffff"
     bordercolor="#666666"
     borderopacity="1"
     objecttolerance="10"
     gridtolerance="10"
     guidetolerance="10"
     inkscape:pageopacity="0"
     inkscape:pageshadow="2"
     inkscape:window-width="1920"
     inkscape:window-height="1011"
     id="namedview5"
     showgrid="false"
     inkscape:zoom="11.357314"
     inkscape:cx="15.2765"
     inkscape:cy="7"
     inkscape:window-x="0"
     inkscape:window-y="0"
     inkscape:window-maximized="1"
     inkscape:current-layer="svg2" />
  <rect
     id="rect4"
     rx="1"
     height="14"
     width="30.553"
     y="0"
     x="0"
     fill="#267dff"
     shape-rendering="crispEdges"
     style="fill:#000000;fill-opacity:1" />
  <path
     id="path6"
     fill="#fff"
     d="m6.6886 10.35h1.575v-1.989h1.098c1.251 0 2.097-0.936 2.097-2.232s-0.846-2.214-2.097-2.214h-2.673v6.435zm1.575-3.339v-1.746h0.801c0.52198 0 0.79198 0.351 0.79198 0.864s-0.27 0.882-0.81898 0.882h-0.774zm4.3094 3.339h1.575v-2.169h0.738l1.143 2.169h1.755l-1.251-2.25c-0.153-0.27-0.243-0.387-0.243-0.387v-0.018c0.639-0.324 0.963-1.071 0.963-1.755 0-0.936-0.459-1.593-1.188-1.872-0.279-0.108-0.594-0.153-1.251-0.153h-2.241v6.435zm1.575-3.519v-1.566h0.531c0.792 0 0.972 0.288 0.972 0.774 0 0.513-0.315 0.792-0.819 0.792h-0.684zm4.2812 0.261c0 1.89 1.422 3.366 3.366 3.366s3.366-1.476 3.366-3.366c0-1.845-1.422-3.285-3.366-3.285s-3.366 1.44-3.366 3.285zm1.629 0c0-1.053 0.774-1.845 1.737-1.845s1.737 0.792 1.737 1.845c0 1.098-0.774 1.926-1.737 1.926s-1.737-0.828-1.737-1.926z" />
</svg>
