<svg width="220" height="92" viewBox="0 0 220 92" fill="none" xmlns="http://www.w3.org/2000/svg">
<g filter="url(#filter0_d)">
<rect x="8.25" y="69.25" width="203.5" height="13.5" fill="#385477" stroke="#268AFF" stroke-width="0.5"/>
<rect x="8.25" y="7.25" width="203.5" height="63.5" fill="#304967" stroke="#268AFF" stroke-width="0.5"/>
<path d="M39.651 17.5583H40.1014L38.9908 14.4716H38.5361L37.4256 17.5583H37.8716L38.1776 16.6708H39.3406L39.651 17.5583ZM38.7679 14.8957C38.7679 14.8957 38.8334 15.1755 38.8859 15.3329L39.2269 16.3123H38.2913L38.6367 15.3329C38.6892 15.1755 38.7591 14.8957 38.7591 14.8957H38.7679ZM40.8974 17.5583H41.3696L41.8243 16.1374C41.8593 16.0237 41.8855 15.8969 41.8855 15.8969H41.8943C41.8943 15.8969 41.9205 16.0237 41.9555 16.1374L42.4145 17.5583H42.8824L43.595 15.346H43.1491L42.6856 16.8982C42.6506 17.0118 42.6332 17.1343 42.6332 17.1343H42.6244C42.6244 17.1343 42.5982 17.0118 42.5632 16.8982L42.0866 15.3504H41.6975L41.2166 16.8982C41.1816 17.0118 41.1597 17.1343 41.1597 17.1343H41.151C41.1466 17.1343 41.1291 17.0118 41.0942 16.8982L40.6351 15.346H40.1847L40.8974 17.5583ZM43.8506 16.4522C43.8506 17.108 44.3272 17.6108 45.0223 17.6108C45.5514 17.6108 45.8793 17.296 45.8793 17.296L45.7044 16.9856C45.7044 16.9856 45.4289 17.2436 45.0486 17.2436C44.6551 17.2436 44.3097 16.9987 44.2878 16.5134H45.9011C45.9011 16.5134 45.9143 16.3866 45.9143 16.3298C45.9143 15.757 45.582 15.2936 44.9567 15.2936C44.3272 15.2936 43.8506 15.7483 43.8506 16.4522ZM44.3009 16.1942C44.3621 15.8313 44.6245 15.6302 44.948 15.6302C45.2322 15.6302 45.4683 15.8139 45.4814 16.1942H44.3009ZM46.2495 17.2873C46.2495 17.2873 46.5468 17.6108 47.089 17.6108C47.5743 17.6108 47.8891 17.3354 47.8891 16.9681C47.8891 16.2423 46.7523 16.3298 46.7523 15.9319C46.7523 15.7395 46.9316 15.6608 47.1152 15.6608C47.465 15.6608 47.6617 15.8576 47.6617 15.8576L47.8323 15.5384C47.8323 15.5384 47.6049 15.2936 47.1196 15.2936C46.678 15.2936 46.3195 15.5209 46.3195 15.9232C46.3195 16.6446 47.4563 16.5615 47.4563 16.9681C47.4563 17.1474 47.2726 17.2436 47.089 17.2436C46.7042 17.2436 46.455 16.9856 46.455 16.9856L46.2495 17.2873ZM48.2268 16.4478C48.2268 17.1211 48.7602 17.6108 49.4204 17.6108C50.0806 17.6108 50.614 17.1211 50.614 16.4478C50.614 15.7789 50.0806 15.2936 49.4204 15.2936C48.7602 15.2936 48.2268 15.7789 48.2268 16.4478ZM48.6597 16.4478C48.6597 15.9887 49.0051 15.6608 49.4204 15.6608C49.8401 15.6608 50.1812 15.9887 50.1812 16.4478C50.1812 16.9113 49.8401 17.2436 49.4204 17.2436C49.0051 17.2436 48.6597 16.9113 48.6597 16.4478ZM51.1169 17.5583H51.541V16.5484C51.541 16.4478 51.5454 16.3473 51.5672 16.2598C51.6503 15.945 51.8777 15.6783 52.2012 15.6783C52.5422 15.6783 52.586 15.945 52.586 16.2336V17.5583H53.0101V16.5484C53.0101 16.4347 53.0188 16.3341 53.0407 16.2423C53.1194 15.9407 53.3511 15.6783 53.6615 15.6783C53.9938 15.6783 54.055 15.9232 54.055 16.2336V17.5583H54.4791V16.1418C54.4791 15.5778 54.2474 15.2936 53.749 15.2936C53.3904 15.2936 53.0844 15.5297 52.962 15.7964H52.9532C52.8789 15.4641 52.6603 15.2936 52.2887 15.2936C51.9433 15.2936 51.6328 15.5428 51.5279 15.8007H51.5192C51.5192 15.8007 51.5279 15.7264 51.5279 15.639V15.346H51.1169V17.5583ZM54.9603 16.4522C54.9603 17.108 55.4369 17.6108 56.1321 17.6108C56.6611 17.6108 56.989 17.296 56.989 17.296L56.8141 16.9856C56.8141 16.9856 56.5387 17.2436 56.1583 17.2436C55.7648 17.2436 55.4194 16.9987 55.3975 16.5134H57.0109C57.0109 16.5134 57.024 16.3866 57.024 16.3298C57.024 15.757 56.6917 15.2936 56.0665 15.2936C55.4369 15.2936 54.9603 15.7483 54.9603 16.4522ZM55.4106 16.1942C55.4719 15.8313 55.7342 15.6302 56.0577 15.6302C56.3419 15.6302 56.578 15.8139 56.5911 16.1942H55.4106ZM60.5896 17.5583H61.0399L59.9294 14.4716H59.4747L58.3641 17.5583H58.8101L59.1162 16.6708H60.2791L60.5896 17.5583ZM59.7064 14.8957C59.7064 14.8957 59.772 15.1755 59.8244 15.3329L60.1655 16.3123H59.2298L59.5752 15.3329C59.6277 15.1755 59.6977 14.8957 59.6977 14.8957H59.7064ZM61.4069 17.5583H61.831V16.6533C61.831 16.5178 61.8441 16.3822 61.8834 16.2554C61.984 15.9275 62.2332 15.7352 62.5043 15.7352C62.5699 15.7352 62.6267 15.7483 62.6267 15.7483V15.3285C62.6267 15.3285 62.5742 15.3198 62.5174 15.3198C62.1764 15.3198 61.9184 15.5734 61.8178 15.8969H61.8091C61.8091 15.8969 61.8178 15.8226 61.8178 15.7308V15.346H61.4069V17.5583ZM63.1382 16.7495C63.1382 17.4884 63.7022 17.5758 63.9864 17.5758C64.0739 17.5758 64.1351 17.5671 64.1351 17.5671V17.1911C64.1351 17.1911 64.0957 17.1998 64.0345 17.1998C63.8728 17.1998 63.5623 17.143 63.5623 16.7014V15.7177H64.0957V15.3766H63.5623V14.7383H63.1514V15.3766H62.8497V15.7177H63.1382V16.7495ZM64.609 14.9044H65.0375V14.4716H64.609V14.9044ZM64.6134 17.5583H65.0375V15.346H64.6134V17.5583ZM65.5229 17.2873C65.5229 17.2873 65.8202 17.6108 66.3624 17.6108C66.8477 17.6108 67.1625 17.3354 67.1625 16.9681C67.1625 16.2423 66.0257 16.3298 66.0257 15.9319C66.0257 15.7395 66.205 15.6608 66.3886 15.6608C66.7384 15.6608 66.9351 15.8576 66.9351 15.8576L67.1056 15.5384C67.1056 15.5384 66.8783 15.2936 66.393 15.2936C65.9514 15.2936 65.5929 15.5209 65.5929 15.9232C65.5929 16.6446 66.7296 16.5615 66.7296 16.9681C66.7296 17.1474 66.546 17.2436 66.3624 17.2436C65.9776 17.2436 65.7284 16.9856 65.7284 16.9856L65.5229 17.2873ZM67.7538 16.7495C67.7538 17.4884 68.3178 17.5758 68.602 17.5758C68.6894 17.5758 68.7506 17.5671 68.7506 17.5671V17.1911C68.7506 17.1911 68.7113 17.1998 68.6501 17.1998C68.4883 17.1998 68.1779 17.143 68.1779 16.7014V15.7177H68.7113V15.3766H68.1779V14.7383H67.7669V15.3766H67.4652V15.7177H67.7538V16.7495Z" fill="#00BBD4"/>
<path d="M37.7171 22.3877H39.1283V22.0952H38.0537V19.9869H37.7171V22.3877ZM39.3232 21.524C39.3232 22.0476 39.738 22.4285 40.2515 22.4285C40.765 22.4285 41.1799 22.0476 41.1799 21.524C41.1799 21.0037 40.765 20.6262 40.2515 20.6262C39.738 20.6262 39.3232 21.0037 39.3232 21.524ZM39.6598 21.524C39.6598 21.1669 39.9285 20.9118 40.2515 20.9118C40.578 20.9118 40.8432 21.1669 40.8432 21.524C40.8432 21.8844 40.578 22.1429 40.2515 22.1429C39.9285 22.1429 39.6598 21.8844 39.6598 21.524ZM41.571 22.3877H41.9009V21.5818C41.9009 21.4967 41.9077 21.4185 41.9281 21.3505C41.9995 21.1023 42.2103 20.9289 42.4722 20.9289C42.7476 20.9289 42.7986 21.1193 42.7986 21.3607V22.3877H43.1285V21.2859C43.1285 20.8472 42.9414 20.6262 42.5368 20.6262C42.1627 20.6262 41.9587 20.871 41.8907 21.0207H41.8839C41.8839 21.0207 41.8907 20.9629 41.8907 20.8948V20.667H41.571V22.3877ZM43.5078 21.5274C43.5078 22.0612 43.8002 22.4285 44.2661 22.4285C44.6912 22.4285 44.8306 22.1088 44.8306 22.1088H44.8374C44.8374 22.1088 44.834 22.1565 44.834 22.2245V22.3877H45.1468V19.9869H44.817V20.7826C44.817 20.8472 44.8238 20.8982 44.8238 20.8982H44.817C44.817 20.8982 44.6844 20.6262 44.2865 20.6262C43.8308 20.6262 43.5078 20.9799 43.5078 21.5274ZM43.8444 21.5274C43.8444 21.1363 44.0689 20.9118 44.3409 20.9118C44.6674 20.9118 44.8272 21.2179 44.8272 21.524C44.8272 21.9626 44.5857 22.1429 44.3307 22.1429C44.0451 22.1429 43.8444 21.9014 43.8444 21.5274ZM45.5365 21.524C45.5365 22.0476 45.9514 22.4285 46.4649 22.4285C46.9783 22.4285 47.3932 22.0476 47.3932 21.524C47.3932 21.0037 46.9783 20.6262 46.4649 20.6262C45.9514 20.6262 45.5365 21.0037 45.5365 21.524ZM45.8732 21.524C45.8732 21.1669 46.1418 20.9118 46.4649 20.9118C46.7913 20.9118 47.0566 21.1669 47.0566 21.524C47.0566 21.8844 46.7913 22.1429 46.4649 22.1429C46.1418 22.1429 45.8732 21.8844 45.8732 21.524ZM47.7844 22.3877H48.1142V21.5818C48.1142 21.4967 48.121 21.4185 48.1414 21.3505C48.2128 21.1023 48.4237 20.9289 48.6855 20.9289C48.961 20.9289 49.012 21.1193 49.012 21.3607V22.3877H49.3418V21.2859C49.3418 20.8472 49.1548 20.6262 48.7501 20.6262C48.3761 20.6262 48.172 20.871 48.104 21.0207H48.0972C48.0972 21.0207 48.104 20.9629 48.104 20.8948V20.667H47.7844V22.3877ZM49.6667 22.7312H49.9285L50.2142 22.0306H49.8775L49.6667 22.7312ZM51.6075 21.5376C51.6075 22.0714 51.9917 22.4285 52.5528 22.4285C53.1139 22.4285 53.4982 22.0714 53.4982 21.5376V19.9869H53.1615V21.5308C53.1615 21.9048 52.9201 22.1191 52.5494 22.1191C52.1822 22.1191 51.9441 21.9048 51.9441 21.5376V19.9869H51.6075V21.5376ZM54.0375 22.3877H54.3674V21.5818C54.3674 21.4967 54.3742 21.4185 54.3946 21.3505C54.466 21.1023 54.6769 20.9289 54.9387 20.9289C55.2141 20.9289 55.2652 21.1193 55.2652 21.3607V22.3877H55.595V21.2859C55.595 20.8472 55.408 20.6262 55.0033 20.6262C54.6292 20.6262 54.4252 20.871 54.3572 21.0207H54.3504C54.3504 21.0207 54.3572 20.9629 54.3572 20.8948V20.667H54.0375V22.3877ZM56.0831 20.3236H56.4164V19.9869H56.0831V20.3236ZM56.0865 22.3877H56.4164V20.667H56.0865V22.3877ZM57.0048 21.7586C57.0048 22.3333 57.4434 22.4013 57.6645 22.4013C57.7325 22.4013 57.7801 22.3945 57.7801 22.3945V22.102C57.7801 22.102 57.7495 22.1088 57.7019 22.1088C57.5761 22.1088 57.3346 22.0646 57.3346 21.7212V20.9561H57.7495V20.6908H57.3346V20.1943H57.015V20.6908H56.7803V20.9561H57.0048V21.7586ZM58.0331 21.5274C58.0331 22.0374 58.4037 22.4285 58.9444 22.4285C59.3559 22.4285 59.6109 22.1837 59.6109 22.1837L59.4749 21.9422C59.4749 21.9422 59.2607 22.1429 58.9648 22.1429C58.6588 22.1429 58.3901 21.9524 58.3731 21.575H59.6279C59.6279 21.575 59.6382 21.4763 59.6382 21.4321C59.6382 20.9867 59.3797 20.6262 58.8934 20.6262C58.4037 20.6262 58.0331 20.9799 58.0331 21.5274ZM58.3833 21.3267C58.4309 21.0445 58.635 20.888 58.8866 20.888C59.1077 20.888 59.2913 21.0309 59.3015 21.3267H58.3833ZM59.9261 21.5274C59.9261 22.0612 60.2186 22.4285 60.6845 22.4285C61.1095 22.4285 61.249 22.1088 61.249 22.1088H61.2558C61.2558 22.1088 61.2524 22.1565 61.2524 22.2245V22.3877H61.5652V19.9869H61.2354V20.7826C61.2354 20.8472 61.2422 20.8982 61.2422 20.8982H61.2354C61.2354 20.8982 61.1027 20.6262 60.7049 20.6262C60.2492 20.6262 59.9261 20.9799 59.9261 21.5274ZM60.2628 21.5274C60.2628 21.1363 60.4872 20.9118 60.7593 20.9118C61.0857 20.9118 61.2456 21.2179 61.2456 21.524C61.2456 21.9626 61.0041 22.1429 60.7491 22.1429C60.4634 22.1429 60.2628 21.9014 60.2628 21.5274ZM63.0221 22.3877H63.3587V21.2859H63.7158L64.3551 22.3877H64.736L63.9947 21.1329V21.1261L64.6918 19.9869H64.3211L63.7158 20.9969H63.3587V19.9869H63.0221V22.3877ZM65.0694 20.3236H65.4026V19.9869H65.0694V20.3236ZM65.0728 22.3877H65.4026V20.667H65.0728V22.3877ZM65.9196 22.3877H66.2495V21.5818C66.2495 21.4967 66.2563 21.4185 66.2767 21.3505C66.3481 21.1023 66.5589 20.9289 66.8208 20.9289C67.0962 20.9289 67.1472 21.1193 67.1472 21.3607V22.3877H67.4771V21.2859C67.4771 20.8472 67.29 20.6262 66.8854 20.6262C66.5113 20.6262 66.3073 20.871 66.2393 21.0207H66.2325C66.2325 21.0207 66.2393 20.9629 66.2393 20.8948V20.667H65.9196V22.3877ZM68.1216 22.7005L68.0128 22.959C68.1794 23.044 68.3937 23.1018 68.6011 23.1018C69.0364 23.1018 69.4682 22.8842 69.4682 22.3163V20.667H69.152V20.8268C69.152 20.8574 69.1554 20.8812 69.1554 20.8812H69.1486C69.1486 20.8812 69.0228 20.6262 68.6079 20.6262C68.1318 20.6262 67.8564 20.9935 67.8564 21.4865C67.8564 21.983 68.1454 22.3673 68.6249 22.3673C68.8731 22.3673 69.033 22.2687 69.135 22.0986H69.1418C69.1418 22.0986 69.1384 22.1531 69.1384 22.2075V22.3333C69.1384 22.6835 68.8935 22.8162 68.5943 22.8162C68.3358 22.8162 68.1216 22.7005 68.1216 22.7005ZM68.6895 22.0816C68.3801 22.0816 68.1896 21.8368 68.1896 21.4797C68.1896 21.1295 68.3597 20.9118 68.6589 20.9118C68.9275 20.9118 69.1452 21.0411 69.1452 21.4899C69.1452 21.9388 68.9275 22.0816 68.6895 22.0816ZM69.8721 21.5274C69.8721 22.0612 70.1646 22.4285 70.6305 22.4285C71.0555 22.4285 71.195 22.1088 71.195 22.1088H71.2018C71.2018 22.1088 71.1984 22.1565 71.1984 22.2245V22.3877H71.5112V19.9869H71.1814V20.7826C71.1814 20.8472 71.1882 20.8982 71.1882 20.8982H71.1814C71.1814 20.8982 71.0487 20.6262 70.6509 20.6262C70.1952 20.6262 69.8721 20.9799 69.8721 21.5274ZM70.2088 21.5274C70.2088 21.1363 70.4332 20.9118 70.7053 20.9118C71.0317 20.9118 71.1916 21.2179 71.1916 21.524C71.1916 21.9626 70.9501 22.1429 70.6951 22.1429C70.4094 22.1429 70.2088 21.9014 70.2088 21.5274ZM71.9009 21.524C71.9009 22.0476 72.3157 22.4285 72.8292 22.4285C73.3427 22.4285 73.7576 22.0476 73.7576 21.524C73.7576 21.0037 73.3427 20.6262 72.8292 20.6262C72.3157 20.6262 71.9009 21.0037 71.9009 21.524ZM72.2375 21.524C72.2375 21.1669 72.5062 20.9118 72.8292 20.9118C73.1557 20.9118 73.4209 21.1669 73.4209 21.524C73.4209 21.8844 73.1557 22.1429 72.8292 22.1429C72.5062 22.1429 72.2375 21.8844 72.2375 21.524ZM74.1487 22.3877H74.4786V21.6022C74.4786 21.524 74.482 21.4457 74.499 21.3777C74.5636 21.1329 74.7404 20.9255 74.9921 20.9255C75.2573 20.9255 75.2913 21.1329 75.2913 21.3573V22.3877H75.6212V21.6022C75.6212 21.5137 75.628 21.4355 75.645 21.3641C75.7062 21.1295 75.8864 20.9255 76.1279 20.9255C76.3863 20.9255 76.4339 21.1159 76.4339 21.3573V22.3877H76.7638V21.2859C76.7638 20.8472 76.5835 20.6262 76.1959 20.6262C75.917 20.6262 75.679 20.8098 75.5838 21.0173H75.577C75.5192 20.7588 75.3491 20.6262 75.0601 20.6262C74.7914 20.6262 74.55 20.82 74.4684 21.0207H74.4616C74.4616 21.0207 74.4684 20.9629 74.4684 20.8948V20.667H74.1487V22.3877Z" fill="#8498A2"/>
<path d="M37.5334 30.8566C37.5334 30.8566 37.8191 31.1729 38.3292 31.1729C38.8053 31.1729 39.0909 30.8668 39.0909 30.4962C39.0909 29.7174 37.9279 29.8501 37.9279 29.3536C37.9279 29.1632 38.1081 29.0033 38.3632 29.0033C38.6692 29.0033 38.8903 29.2108 38.8903 29.2108L39.0433 28.9319C39.0433 28.9319 38.8087 28.6905 38.3632 28.6905C37.9109 28.6905 37.5879 28.9863 37.5879 29.3604C37.5879 30.0983 38.7509 29.9861 38.7509 30.5064C38.7509 30.7342 38.5604 30.86 38.336 30.86C37.9789 30.86 37.7239 30.6016 37.7239 30.6016L37.5334 30.8566ZM39.3796 30.2683C39.3796 30.792 39.7945 31.1729 40.308 31.1729C40.8215 31.1729 41.2363 30.792 41.2363 30.2683C41.2363 29.748 40.8215 29.3706 40.308 29.3706C39.7945 29.3706 39.3796 29.748 39.3796 30.2683ZM39.7163 30.2683C39.7163 29.9113 39.9849 29.6562 40.308 29.6562C40.6344 29.6562 40.8997 29.9113 40.8997 30.2683C40.8997 30.6288 40.6344 30.8872 40.308 30.8872C39.9849 30.8872 39.7163 30.6288 39.7163 30.2683ZM41.6037 30.5132C41.6037 30.9689 41.8043 31.1729 42.192 31.1729C42.5286 31.1729 42.7531 30.9484 42.8245 30.7784H42.8313C42.8313 30.7784 42.8245 30.8328 42.8245 30.9042V31.1321H43.1441V29.4114H42.8143V30.2173C42.8143 30.5574 42.6068 30.8668 42.2566 30.8668C41.9811 30.8668 41.9335 30.6764 41.9335 30.4384V29.4114H41.6037V30.5132ZM43.6598 31.1321H43.9897V30.3261C43.9897 30.2411 43.9965 30.1629 44.0169 30.0949C44.0883 29.8467 44.2991 29.6732 44.561 29.6732C44.8364 29.6732 44.8874 29.8637 44.8874 30.1051V31.1321H45.2173V30.0303C45.2173 29.5916 45.0303 29.3706 44.6256 29.3706C44.2515 29.3706 44.0475 29.6154 43.9795 29.7651H43.9727C43.9727 29.7651 43.9795 29.7072 43.9795 29.6392V29.4114H43.6598V31.1321ZM45.5966 30.2717C45.5966 30.8056 45.889 31.1729 46.3549 31.1729C46.78 31.1729 46.9194 30.8532 46.9194 30.8532H46.9262C46.9262 30.8532 46.9228 30.9008 46.9228 30.9689V31.1321H47.2357V28.7313H46.9058V29.527C46.9058 29.5916 46.9126 29.6426 46.9126 29.6426H46.9058C46.9058 29.6426 46.7732 29.3706 46.3753 29.3706C45.9196 29.3706 45.5966 29.7242 45.5966 30.2717ZM45.9333 30.2717C45.9333 29.8807 46.1577 29.6562 46.4297 29.6562C46.7562 29.6562 46.916 29.9623 46.916 30.2683C46.916 30.707 46.6746 30.8872 46.4195 30.8872C46.1339 30.8872 45.9333 30.6458 45.9333 30.2717ZM47.6117 30.9212C47.6117 30.9212 47.843 31.1729 48.2646 31.1729C48.6421 31.1729 48.8869 30.9587 48.8869 30.673C48.8869 30.1085 48.0028 30.1765 48.0028 29.8671C48.0028 29.7174 48.1422 29.6562 48.285 29.6562C48.5571 29.6562 48.7101 29.8093 48.7101 29.8093L48.8427 29.561C48.8427 29.561 48.6659 29.3706 48.2884 29.3706C47.945 29.3706 47.6661 29.5474 47.6661 29.8603C47.6661 30.4214 48.5503 30.3568 48.5503 30.673C48.5503 30.8124 48.4075 30.8872 48.2646 30.8872C47.9654 30.8872 47.7715 30.6866 47.7715 30.6866L47.6117 30.9212ZM50.2168 31.1321H51.6281V30.8396H50.5535V28.7313H50.2168V31.1321ZM51.9453 29.0679H52.2786V28.7313H51.9453V29.0679ZM51.9487 31.1321H52.2786V29.4114H51.9487V31.1321ZM52.7955 31.1321H53.1254V30.3227H53.3736L53.8905 31.1321H54.2748L53.6389 30.1765V30.1697L54.2102 29.4114H53.8361L53.3668 30.0439H53.1254V28.7313H52.7955V31.1321ZM54.4399 30.2717C54.4399 30.7818 54.8106 31.1729 55.3513 31.1729C55.7627 31.1729 56.0178 30.928 56.0178 30.928L55.8817 30.6866C55.8817 30.6866 55.6675 30.8872 55.3717 30.8872C55.0656 30.8872 54.797 30.6968 54.78 30.3193H56.0348C56.0348 30.3193 56.045 30.2207 56.045 30.1765C56.045 29.731 55.7865 29.3706 55.3002 29.3706C54.8106 29.3706 54.4399 29.7242 54.4399 30.2717ZM54.7902 30.0711C54.8378 29.7889 55.0418 29.6324 55.2934 29.6324C55.5145 29.6324 55.6981 29.7753 55.7083 30.0711H54.7902ZM56.5098 29.7617H56.8566V29.4114H56.5098V29.7617ZM56.5098 31.1321H56.8566V30.7818H56.5098V31.1321Z" fill="#FFD13A"/>
<path d="M58.3795 31.1321H58.7162V30.1051H59.5561V29.8127H58.7162V29.0237H59.7023V28.7313H58.3795V31.1321ZM59.9122 30.6492C59.9122 30.9927 60.2013 31.1729 60.4971 31.1729C60.9086 31.1729 61.048 30.8328 61.048 30.8328H61.0548C61.0548 30.8328 61.048 30.8906 61.048 30.9689V31.1321H61.3541V30.0439C61.3541 29.6086 61.1092 29.3706 60.6739 29.3706C60.2795 29.3706 60.0312 29.5746 60.0312 29.5746L60.1673 29.8161C60.1673 29.8161 60.3815 29.6494 60.6467 29.6494C60.8644 29.6494 61.0242 29.7446 61.0242 30.0269V30.0575H60.9494C60.6603 30.0575 59.9122 30.0813 59.9122 30.6492ZM60.2455 30.6322C60.2455 30.3227 60.6943 30.3057 60.9426 30.3057H61.0276V30.3602C61.0276 30.6152 60.8474 30.9076 60.5685 30.9076C60.3543 30.9076 60.2455 30.7716 60.2455 30.6322ZM61.8482 31.1321H62.1781V30.3465C62.1781 30.2683 62.1815 30.1901 62.1985 30.1221C62.2631 29.8773 62.4399 29.6698 62.6916 29.6698C62.9568 29.6698 62.9908 29.8773 62.9908 30.1017V31.1321H63.3207V30.3465C63.3207 30.2581 63.3275 30.1799 63.3445 30.1085C63.4057 29.8739 63.5859 29.6698 63.8274 29.6698C64.0858 29.6698 64.1334 29.8603 64.1334 30.1017V31.1321H64.4633V30.0303C64.4633 29.5916 64.283 29.3706 63.8954 29.3706C63.6165 29.3706 63.3785 29.5542 63.2833 29.7617H63.2765C63.2187 29.5032 63.0486 29.3706 62.7596 29.3706C62.4909 29.3706 62.2495 29.5644 62.1679 29.7651H62.1611C62.1611 29.7651 62.1679 29.7072 62.1679 29.6392V29.4114H61.8482V31.1321ZM64.8307 30.2683C64.8307 30.792 65.2456 31.1729 65.7591 31.1729C66.2726 31.1729 66.6874 30.792 66.6874 30.2683C66.6874 29.748 66.2726 29.3706 65.7591 29.3706C65.2456 29.3706 64.8307 29.748 64.8307 30.2683ZM65.1674 30.2683C65.1674 29.9113 65.436 29.6562 65.7591 29.6562C66.0855 29.6562 66.3508 29.9113 66.3508 30.2683C66.3508 30.6288 66.0855 30.8872 65.7591 30.8872C65.436 30.8872 65.1674 30.6288 65.1674 30.2683ZM67.0548 30.5132C67.0548 30.9689 67.2554 31.1729 67.6431 31.1729C67.9797 31.1729 68.2042 30.9484 68.2756 30.7784H68.2824C68.2824 30.7784 68.2756 30.8328 68.2756 30.9042V31.1321H68.5952V29.4114H68.2654V30.2173C68.2654 30.5574 68.058 30.8668 67.7077 30.8668C67.4323 30.8668 67.3846 30.6764 67.3846 30.4384V29.4114H67.0548V30.5132ZM68.9715 30.9212C68.9715 30.9212 69.2028 31.1729 69.6244 31.1729C70.0019 31.1729 70.2468 30.9587 70.2468 30.673C70.2468 30.1085 69.3626 30.1765 69.3626 29.8671C69.3626 29.7174 69.502 29.6562 69.6449 29.6562C69.9169 29.6562 70.0699 29.8093 70.0699 29.8093L70.2025 29.561C70.2025 29.561 70.0257 29.3706 69.6483 29.3706C69.3048 29.3706 69.0259 29.5474 69.0259 29.8603C69.0259 30.4214 69.9101 30.3568 69.9101 30.673C69.9101 30.8124 69.7673 30.8872 69.6244 30.8872C69.3252 30.8872 69.1314 30.6866 69.1314 30.6866L68.9715 30.9212ZM73.0083 31.1321H73.3585L72.4948 28.7313H72.1411L71.2774 31.1321H71.6242L71.8623 30.4418H72.7668L73.0083 31.1321ZM72.3214 29.0611C72.3214 29.0611 72.3724 29.2788 72.4132 29.4012L72.6784 30.1629H71.9507L72.2193 29.4012C72.2602 29.2788 72.3146 29.0611 72.3146 29.0611H72.3214ZM73.6439 31.1321H73.9738V30.4282C73.9738 30.3227 73.984 30.2173 74.0146 30.1187C74.0928 29.8637 74.2867 29.714 74.4975 29.714C74.5485 29.714 74.5927 29.7242 74.5927 29.7242V29.3978C74.5927 29.3978 74.5519 29.391 74.5077 29.391C74.2424 29.391 74.0418 29.5882 73.9636 29.8399H73.9568C73.9568 29.8399 73.9636 29.7821 73.9636 29.7106V29.4114H73.6439V31.1321ZM74.9906 30.503C74.9906 31.0777 75.4292 31.1457 75.6503 31.1457C75.7183 31.1457 75.7659 31.1389 75.7659 31.1389V30.8464C75.7659 30.8464 75.7353 30.8532 75.6877 30.8532C75.5619 30.8532 75.3204 30.809 75.3204 30.4656V29.7004H75.7353V29.4352H75.3204V28.9387H75.0008V29.4352H74.7661V29.7004H74.9906V30.503ZM76.1345 29.0679H76.4678V28.7313H76.1345V29.0679ZM76.1379 31.1321H76.4678V29.4114H76.1379V31.1321ZM76.8453 30.9212C76.8453 30.9212 77.0766 31.1729 77.4982 31.1729C77.8757 31.1729 78.1205 30.9587 78.1205 30.673C78.1205 30.1085 77.2364 30.1765 77.2364 29.8671C77.2364 29.7174 77.3758 29.6562 77.5186 29.6562C77.7907 29.6562 77.9437 29.8093 77.9437 29.8093L78.0763 29.561C78.0763 29.561 77.8995 29.3706 77.522 29.3706C77.1786 29.3706 76.8997 29.5474 76.8997 29.8603C76.8997 30.4214 77.7839 30.3568 77.7839 30.673C77.7839 30.8124 77.641 30.8872 77.4982 30.8872C77.199 30.8872 77.0051 30.6866 77.0051 30.6866L76.8453 30.9212ZM78.5804 30.503C78.5804 31.0777 79.0191 31.1457 79.2401 31.1457C79.3082 31.1457 79.3558 31.1389 79.3558 31.1389V30.8464C79.3558 30.8464 79.3252 30.8532 79.2775 30.8532C79.1517 30.8532 78.9103 30.809 78.9103 30.4656V29.7004H79.3252V29.4352H78.9103V28.9387H78.5906V29.4352H78.356V29.7004H78.5804V30.503Z" fill="#C4C4C4"/>
<path d="M37.2905 36.2004C37.2905 36.2004 37.5762 36.5166 38.0863 36.5166C38.5623 36.5166 38.848 36.2106 38.848 35.8399C38.848 35.0612 37.685 35.1938 37.685 34.6973C37.685 34.5069 37.8652 34.3471 38.1203 34.3471C38.4263 34.3471 38.6474 34.5545 38.6474 34.5545L38.8004 34.2757C38.8004 34.2757 38.5657 34.0342 38.1203 34.0342C37.668 34.0342 37.3449 34.3301 37.3449 34.7041C37.3449 35.4421 38.5079 35.3298 38.5079 35.8501C38.5079 36.078 38.3175 36.2038 38.0931 36.2038C37.736 36.2038 37.481 35.9453 37.481 35.9453L37.2905 36.2004ZM39.324 35.8467C39.324 36.4214 39.7626 36.4894 39.9837 36.4894C40.0517 36.4894 40.0993 36.4826 40.0993 36.4826V36.1902C40.0993 36.1902 40.0687 36.197 40.0211 36.197C39.8953 36.197 39.6538 36.1528 39.6538 35.8093V35.0442H40.0687V34.7789H39.6538V34.2825H39.3342V34.7789H39.0995V35.0442H39.324V35.8467ZM40.4475 35.8569C40.4475 36.3126 40.6481 36.5166 41.0358 36.5166C41.3725 36.5166 41.5969 36.2922 41.6683 36.1222H41.6751C41.6751 36.1222 41.6683 36.1766 41.6683 36.248V36.4758H41.988V34.7551H41.6581V35.5611C41.6581 35.9011 41.4507 36.2106 41.1004 36.2106C40.825 36.2106 40.7774 36.0202 40.7774 35.7821V34.7551H40.4475V35.8569ZM42.3915 35.6155C42.3915 36.1494 42.6839 36.5166 43.1498 36.5166C43.5749 36.5166 43.7143 36.197 43.7143 36.197H43.7211C43.7211 36.197 43.7177 36.2446 43.7177 36.3126V36.4758H44.0305V34.075H43.7007V34.8708C43.7007 34.9354 43.7075 34.9864 43.7075 34.9864H43.7007C43.7007 34.9864 43.5681 34.7143 43.1702 34.7143C42.7145 34.7143 42.3915 35.068 42.3915 35.6155ZM42.7281 35.6155C42.7281 35.2244 42.9526 35 43.2246 35C43.5511 35 43.7109 35.306 43.7109 35.6121C43.7109 36.0508 43.4694 36.231 43.2144 36.231C42.9288 36.231 42.7281 35.9895 42.7281 35.6155ZM44.5426 34.4117H44.8759V34.075H44.5426V34.4117ZM44.546 36.4758H44.8759V34.7551H44.546V36.4758ZM45.267 35.6121C45.267 36.1358 45.6819 36.5166 46.1954 36.5166C46.7089 36.5166 47.1237 36.1358 47.1237 35.6121C47.1237 35.0918 46.7089 34.7143 46.1954 34.7143C45.6819 34.7143 45.267 35.0918 45.267 35.6121ZM45.6037 35.6121C45.6037 35.255 45.8723 35 46.1954 35C46.5218 35 46.7871 35.255 46.7871 35.6121C46.7871 35.9725 46.5218 36.231 46.1954 36.231C45.8723 36.231 45.6037 35.9725 45.6037 35.6121ZM49.8879 36.4758H50.2382L49.3744 34.075H49.0208L48.157 36.4758H48.5039L48.7419 35.7855H49.6465L49.8879 36.4758ZM49.201 34.4049C49.201 34.4049 49.252 34.6225 49.2928 34.7449L49.5581 35.5067H48.8303L49.099 34.7449C49.1398 34.6225 49.1942 34.4049 49.1942 34.4049H49.201ZM50.4012 35.6155C50.4012 36.1324 50.782 36.5166 51.3227 36.5166C51.7716 36.5166 52.0096 36.2412 52.0096 36.2412L51.877 35.9998C51.877 35.9998 51.6662 36.231 51.3465 36.231C50.9895 36.231 50.7378 35.9623 50.7378 35.6121C50.7378 35.2584 50.9895 35 51.3363 35C51.6288 35 51.8124 35.1972 51.8124 35.1972L51.9688 34.966C51.9688 34.966 51.7546 34.7143 51.3227 34.7143C50.782 34.7143 50.4012 35.1054 50.4012 35.6155ZM52.2608 35.6155C52.2608 36.1324 52.6417 36.5166 53.1824 36.5166C53.6313 36.5166 53.8693 36.2412 53.8693 36.2412L53.7367 35.9998C53.7367 35.9998 53.5259 36.231 53.2062 36.231C52.8491 36.231 52.5975 35.9623 52.5975 35.6121C52.5975 35.2584 52.8491 35 53.196 35C53.4884 35 53.6721 35.1972 53.6721 35.1972L53.8285 34.966C53.8285 34.966 53.6143 34.7143 53.1824 34.7143C52.6417 34.7143 52.2608 35.1054 52.2608 35.6155ZM54.1239 35.6155C54.1239 36.1256 54.4946 36.5166 55.0353 36.5166C55.4467 36.5166 55.7018 36.2718 55.7018 36.2718L55.5658 36.0304C55.5658 36.0304 55.3515 36.231 55.0557 36.231C54.7496 36.231 54.481 36.0406 54.464 35.6631H55.7188C55.7188 35.6631 55.729 35.5645 55.729 35.5203C55.729 35.0748 55.4705 34.7143 54.9843 34.7143C54.4946 34.7143 54.1239 35.068 54.1239 35.6155ZM54.4742 35.4149C54.5218 35.1326 54.7258 34.9762 54.9775 34.9762C55.1985 34.9762 55.3821 35.119 55.3923 35.4149H54.4742ZM55.9898 36.265C55.9898 36.265 56.221 36.5166 56.6427 36.5166C57.0201 36.5166 57.265 36.3024 57.265 36.0168C57.265 35.4523 56.3808 35.5203 56.3808 35.2108C56.3808 35.0612 56.5203 35 56.6631 35C56.9351 35 57.0882 35.153 57.0882 35.153L57.2208 34.9048C57.2208 34.9048 57.044 34.7143 56.6665 34.7143C56.323 34.7143 56.0442 34.8912 56.0442 35.204C56.0442 35.7651 56.9283 35.7005 56.9283 36.0168C56.9283 36.1562 56.7855 36.231 56.6427 36.231C56.3434 36.231 56.1496 36.0304 56.1496 36.0304L55.9898 36.265ZM57.7181 35.1054H58.0649V34.7551H57.7181V35.1054ZM57.7181 36.4758H58.0649V36.1256H57.7181V36.4758Z" fill="#FFD13A"/>
<path d="M60.0945 36.4758H60.4312V35.4591L61.2337 34.075H60.8528L60.4142 34.864C60.3393 35 60.2679 35.1666 60.2679 35.1666H60.2611C60.2611 35.1666 60.1897 34.9966 60.1149 34.864L59.6694 34.075H59.2886L60.0945 35.4591V36.4758ZM61.587 36.4758H63.039V36.1834H61.9236V35.4115H62.784V35.119H61.9236V34.3675H62.9812V34.075H61.587V36.4758ZM63.3527 36.2004C63.3527 36.2004 63.6383 36.5166 64.1484 36.5166C64.6245 36.5166 64.9102 36.2106 64.9102 35.8399C64.9102 35.0612 63.7472 35.1938 63.7472 34.6973C63.7472 34.5069 63.9274 34.3471 64.1824 34.3471C64.4885 34.3471 64.7095 34.5545 64.7095 34.5545L64.8625 34.2757C64.8625 34.2757 64.6279 34.0342 64.1824 34.0342C63.7302 34.0342 63.4071 34.3301 63.4071 34.7041C63.4071 35.4421 64.5701 35.3298 64.5701 35.8501C64.5701 36.078 64.3797 36.2038 64.1552 36.2038C63.7982 36.2038 63.5431 35.9453 63.5431 35.9453L63.3527 36.2004Z" fill="#C4C4C4"/>
<path d="M37.2516 42H37.5883L37.7039 40.4867C37.7141 40.3405 37.7107 40.1263 37.7107 40.1263H37.7175C37.7175 40.1263 37.7923 40.3575 37.8467 40.4867L38.3228 41.5681H38.6221L39.1016 40.4867C39.1594 40.3541 39.2308 40.1331 39.2308 40.1331H39.2376C39.2376 40.1331 39.2308 40.3405 39.241 40.4867L39.36 42H39.6933L39.4994 39.5992H39.1458L38.5949 40.8982C38.5405 41.0308 38.4758 41.2213 38.4758 41.2213H38.469C38.469 41.2213 38.4044 41.0308 38.35 40.8982L37.7991 39.5992H37.4455L37.2516 42ZM40.2007 39.9359H40.5339V39.5992H40.2007V39.9359ZM40.2041 42H40.5339V40.2793H40.2041V42ZM40.9285 41.1397C40.9285 41.6565 41.3093 42.0408 41.85 42.0408C42.2989 42.0408 42.5369 41.7654 42.5369 41.7654L42.4043 41.5239C42.4043 41.5239 42.1935 41.7552 41.8738 41.7552C41.5168 41.7552 41.2651 41.4865 41.2651 41.1363C41.2651 40.7826 41.5168 40.5242 41.8636 40.5242C42.1561 40.5242 42.3397 40.7214 42.3397 40.7214L42.4961 40.4901C42.4961 40.4901 42.2819 40.2385 41.85 40.2385C41.3093 40.2385 40.9285 40.6296 40.9285 41.1397ZM42.9106 42H43.2404V41.2961C43.2404 41.1907 43.2506 41.0852 43.2812 40.9866C43.3594 40.7316 43.5533 40.582 43.7641 40.582C43.8151 40.582 43.8593 40.5922 43.8593 40.5922V40.2657C43.8593 40.2657 43.8185 40.2589 43.7743 40.2589C43.5091 40.2589 43.3084 40.4561 43.2302 40.7078H43.2234C43.2234 40.7078 43.2302 40.65 43.2302 40.5786V40.2793H42.9106V42ZM44.05 41.1363C44.05 41.6599 44.4649 42.0408 44.9783 42.0408C45.4918 42.0408 45.9067 41.6599 45.9067 41.1363C45.9067 40.616 45.4918 40.2385 44.9783 40.2385C44.4649 40.2385 44.05 40.616 44.05 41.1363ZM44.3866 41.1363C44.3866 40.7792 44.6553 40.5242 44.9783 40.5242C45.3048 40.5242 45.57 40.7792 45.57 41.1363C45.57 41.4967 45.3048 41.7552 44.9783 41.7552C44.6553 41.7552 44.3866 41.4967 44.3866 41.1363ZM46.2978 42.6801H46.6277V41.9082C46.6277 41.8198 46.6209 41.7586 46.6209 41.7586H46.6277C46.6277 41.7586 46.7773 42.0408 47.1548 42.0408C47.6037 42.0408 47.9335 41.6871 47.9335 41.1397C47.9335 40.6058 47.6411 40.2385 47.1786 40.2385C46.7467 40.2385 46.6005 40.5514 46.6005 40.5514H46.5937C46.5937 40.5514 46.6005 40.4935 46.6005 40.4255V40.2793H46.2978V42.6801ZM46.6175 41.1465C46.6175 40.7078 46.8555 40.5276 47.114 40.5276C47.3996 40.5276 47.6003 40.769 47.6003 41.1431C47.6003 41.5341 47.3758 41.7586 47.1038 41.7586C46.7875 41.7586 46.6175 41.4525 46.6175 41.1465ZM48.3369 42H48.6667V41.1941C48.6667 41.1125 48.6735 41.0342 48.6939 40.9662C48.7653 40.718 48.9796 40.5412 49.238 40.5412C49.5135 40.5412 49.5645 40.7316 49.5645 40.973V42H49.8943V40.8982C49.8943 40.4595 49.7073 40.2385 49.3026 40.2385C48.9592 40.2385 48.7415 40.4561 48.6667 40.6228H48.6599C48.6599 40.6228 48.6667 40.5616 48.6667 40.4799V39.5992H48.3369V42ZM50.26 41.1363C50.26 41.6599 50.6749 42.0408 51.1884 42.0408C51.7019 42.0408 52.1167 41.6599 52.1167 41.1363C52.1167 40.616 51.7019 40.2385 51.1884 40.2385C50.6749 40.2385 50.26 40.616 50.26 41.1363ZM50.5967 41.1363C50.5967 40.7792 50.8653 40.5242 51.1884 40.5242C51.5148 40.5242 51.7801 40.7792 51.7801 41.1363C51.7801 41.4967 51.5148 41.7552 51.1884 41.7552C50.8653 41.7552 50.5967 41.4967 50.5967 41.1363ZM52.5079 42H52.8377V41.1941C52.8377 41.1091 52.8445 41.0308 52.8649 40.9628C52.9363 40.7146 53.1472 40.5412 53.409 40.5412C53.6845 40.5412 53.7355 40.7316 53.7355 40.973V42H54.0653V40.8982C54.0653 40.4595 53.8783 40.2385 53.4736 40.2385C53.0996 40.2385 52.8955 40.4833 52.8275 40.633H52.8207C52.8207 40.633 52.8275 40.5752 52.8275 40.5072V40.2793H52.5079V42ZM54.4378 41.1397C54.4378 41.6497 54.8085 42.0408 55.3492 42.0408C55.7606 42.0408 56.0157 41.796 56.0157 41.796L55.8797 41.5545C55.8797 41.5545 55.6654 41.7552 55.3696 41.7552C55.0635 41.7552 54.7949 41.5647 54.7779 41.1873H56.0327C56.0327 41.1873 56.0429 41.0886 56.0429 41.0444C56.0429 40.599 55.7844 40.2385 55.2982 40.2385C54.8085 40.2385 54.4378 40.5922 54.4378 41.1397ZM54.7881 40.939C54.8357 40.6568 55.0397 40.5003 55.2914 40.5003C55.5124 40.5003 55.696 40.6432 55.7062 40.939H54.7881ZM56.5077 40.6296H56.8546V40.2793H56.5077V40.6296ZM56.5077 42H56.8546V41.6497H56.5077V42Z" fill="#FFD13A"/>
<path d="M58.3774 42H58.7141V40.4425C58.7141 40.3065 58.6903 40.0923 58.6903 40.0923H58.6971C58.6971 40.0923 58.8093 40.3099 58.8977 40.4425L59.9689 42H60.2988V39.5992H59.9621V41.1601C59.9621 41.2927 59.9859 41.5069 59.9859 41.5069H59.9791C59.9791 41.5069 59.8669 41.2893 59.7785 41.1601L58.7107 39.5992H58.3774V42ZM60.7641 41.1397C60.7641 41.6497 61.1347 42.0408 61.6754 42.0408C62.0869 42.0408 62.3419 41.796 62.3419 41.796L62.2059 41.5545C62.2059 41.5545 61.9917 41.7552 61.6958 41.7552C61.3898 41.7552 61.1211 41.5647 61.1041 41.1873H62.3589C62.3589 41.1873 62.3691 41.0886 62.3691 41.0444C62.3691 40.599 62.1107 40.2385 61.6244 40.2385C61.1347 40.2385 60.7641 40.5922 60.7641 41.1397ZM61.1143 40.939C61.1619 40.6568 61.366 40.5003 61.6176 40.5003C61.8387 40.5003 62.0223 40.6432 62.0325 40.939H61.1143ZM62.7455 41.3811C62.7455 41.8368 62.9462 42.0408 63.3338 42.0408C63.6705 42.0408 63.8949 41.8164 63.9663 41.6463H63.9731C63.9731 41.6463 63.9663 41.7007 63.9663 41.7722V42H64.286V40.2793H63.9561V41.0852C63.9561 41.4253 63.7487 41.7348 63.3984 41.7348C63.123 41.7348 63.0754 41.5443 63.0754 41.3063V40.2793H62.7455V41.3811ZM64.8017 42H65.1316V41.2145C65.1316 41.1363 65.135 41.058 65.152 40.99C65.2166 40.7452 65.3934 40.5378 65.6451 40.5378C65.9103 40.5378 65.9443 40.7452 65.9443 40.9696V42H66.2742V41.2145C66.2742 41.1261 66.281 41.0478 66.298 40.9764C66.3592 40.7418 66.5394 40.5378 66.7808 40.5378C67.0393 40.5378 67.0869 40.7282 67.0869 40.9696V42H67.4168V40.8982C67.4168 40.4595 67.2365 40.2385 66.8489 40.2385C66.57 40.2385 66.332 40.4221 66.2368 40.6296H66.23C66.1721 40.3711 66.0021 40.2385 65.7131 40.2385C65.4444 40.2385 65.203 40.4323 65.1214 40.633H65.1146C65.1146 40.633 65.1214 40.5752 65.1214 40.5072V40.2793H64.8017V42ZM67.7706 41.5171C67.7706 41.8606 68.0597 42.0408 68.3555 42.0408C68.767 42.0408 68.9064 41.7007 68.9064 41.7007H68.9132C68.9132 41.7007 68.9064 41.7586 68.9064 41.8368V42H69.2125V40.9118C69.2125 40.4765 68.9676 40.2385 68.5324 40.2385C68.1379 40.2385 67.8896 40.4425 67.8896 40.4425L68.0257 40.684C68.0257 40.684 68.2399 40.5174 68.5051 40.5174C68.7228 40.5174 68.8826 40.6126 68.8826 40.8948V40.9254H68.8078C68.5187 40.9254 67.7706 40.9492 67.7706 41.5171ZM68.1039 41.5001C68.1039 41.1907 68.5528 41.1737 68.801 41.1737H68.886V41.2281C68.886 41.4831 68.7058 41.7756 68.4269 41.7756C68.2127 41.7756 68.1039 41.6395 68.1039 41.5001ZM69.7066 42H70.0365V41.1941C70.0365 41.1091 70.0433 41.0308 70.0637 40.9628C70.1351 40.7146 70.3459 40.5412 70.6078 40.5412C70.8832 40.5412 70.9342 40.7316 70.9342 40.973V42H71.2641V40.8982C71.2641 40.4595 71.0771 40.2385 70.6724 40.2385C70.2983 40.2385 70.0943 40.4833 70.0263 40.633H70.0195C70.0195 40.633 70.0263 40.5752 70.0263 40.5072V40.2793H69.7066V42ZM71.7556 42H72.0855V41.1941C72.0855 41.1091 72.0923 41.0308 72.1127 40.9628C72.1841 40.7146 72.3949 40.5412 72.6568 40.5412C72.9322 40.5412 72.9832 40.7316 72.9832 40.973V42H73.3131V40.8982C73.3131 40.4595 73.126 40.2385 72.7214 40.2385C72.3473 40.2385 72.1433 40.4833 72.0753 40.633H72.0685C72.0685 40.633 72.0753 40.5752 72.0753 40.5072V40.2793H71.7556V42Z" fill="#C4C4C4"/>
<path d="M185.533 20.3179C185.533 20.3179 186.137 21 187.247 21.0874V21.9007H187.737V21.0874C188.743 20.9913 189.346 20.2917 189.346 19.4435C189.346 17.4586 186.259 17.7908 186.259 16.383C186.259 15.8409 186.758 15.3249 187.553 15.3249C188.349 15.3249 188.9 15.8496 188.9 15.8496L189.197 15.3424C189.197 15.3424 188.681 14.809 187.737 14.7566V13.9433H187.247V14.774C186.277 14.8965 185.638 15.596 185.638 16.4005C185.638 18.2718 188.734 17.9657 188.734 19.461C188.734 20.1256 188.183 20.5278 187.51 20.5278C186.539 20.5278 185.901 19.8545 185.901 19.8545L185.533 20.3179ZM190.427 21H194.266V20.4579H191.057C191.065 18.8227 194.17 18.5341 194.17 16.4704C194.17 15.5086 193.47 14.7478 192.298 14.7478C190.995 14.7478 190.436 15.8583 190.436 15.8583L190.891 16.1644C190.891 16.1644 191.363 15.3249 192.263 15.3249C193.033 15.3249 193.54 15.8321 193.54 16.5054C193.54 18.1668 190.392 18.4467 190.392 20.6065C190.392 20.7289 190.401 20.8601 190.427 21ZM195.284 20.2305C195.284 20.2305 195.861 21.1049 197.085 21.1049C198.283 21.1049 199.219 20.2218 199.219 19.085C199.219 17.9745 198.336 17.0825 197.103 17.0825C196.552 17.0825 196.167 17.3186 196.167 17.3186H196.15C196.15 17.3186 196.185 17.1875 196.211 16.9689L196.386 15.3949H198.834V14.8527H195.861L195.529 17.8346L195.914 17.9745C195.914 17.9745 196.377 17.6422 197.033 17.6422C197.907 17.6422 198.589 18.2455 198.589 19.085C198.589 19.9244 197.907 20.5278 197.059 20.5278C196.123 20.5278 195.669 19.8108 195.669 19.8108L195.284 20.2305ZM202.425 21.1049C204.025 21.1049 204.541 19.7058 204.541 17.922C204.541 16.1556 204.025 14.7478 202.425 14.7478C200.824 14.7478 200.3 16.1556 200.3 17.922C200.3 19.7058 200.824 21.1049 202.425 21.1049ZM202.425 20.5366C201.253 20.5366 200.929 19.391 200.929 17.922C200.929 16.4617 201.253 15.3162 202.425 15.3162C203.588 15.3162 203.911 16.4617 203.911 17.922C203.911 19.391 203.588 20.5366 202.425 20.5366Z" fill="#00C4E3"/>
<circle cx="27.1245" cy="54.8717" r="4.15" fill="#00BBD4"/>
<path d="M29.5452 54.872L25.9139 56.9685L25.9139 52.7755L29.5452 54.872Z" fill="white"/>
<mask id="path-11-outside-1" maskUnits="userSpaceOnUse" x="37.2941" y="52.2942" width="2" height="5" fill="black">
<rect fill="white" x="37.2941" y="52.2942" width="2" height="5"/>
<path d="M38.2941 53.2942V56.4707Z"/>
</mask>
<path d="M38.6941 53.2942C38.6941 53.0733 38.515 52.8942 38.2941 52.8942C38.0732 52.8942 37.8941 53.0733 37.8941 53.2942H38.6941ZM37.8941 56.4707C37.8941 56.6916 38.0732 56.8707 38.2941 56.8707C38.515 56.8707 38.6941 56.6916 38.6941 56.4707H37.8941ZM37.8941 53.2942V56.4707H38.6941V53.2942H37.8941Z" fill="#B8B8B8" mask="url(#path-11-outside-1)"/>
<mask id="path-13-outside-2" maskUnits="userSpaceOnUse" x="38.3529" y="49.1177" width="2" height="11" fill="black">
<rect fill="white" x="38.3529" y="49.1177" width="2" height="11"/>
<path d="M39.3529 50.1177V59.6471Z"/>
</mask>
<path d="M39.7529 50.1177C39.7529 49.8968 39.5738 49.7177 39.3529 49.7177C39.132 49.7177 38.9529 49.8968 38.9529 50.1177H39.7529ZM38.9529 59.6471C38.9529 59.868 39.132 60.0471 39.3529 60.0471C39.5738 60.0471 39.7529 59.868 39.7529 59.6471H38.9529ZM38.9529 50.1177V59.6471H39.7529V50.1177H38.9529Z" fill="#B8B8B8" mask="url(#path-13-outside-2)"/>
<mask id="path-15-outside-3" maskUnits="userSpaceOnUse" x="40.4706" y="51.2354" width="2" height="7" fill="black">
<rect fill="white" x="40.4706" y="51.2354" width="2" height="7"/>
<path d="M41.4706 52.2354V57.5295Z"/>
</mask>
<path d="M41.8706 52.2354C41.8706 52.0144 41.6915 51.8354 41.4706 51.8354C41.2497 51.8354 41.0706 52.0144 41.0706 52.2354H41.8706ZM41.0706 57.5295C41.0706 57.7504 41.2497 57.9295 41.4706 57.9295C41.6915 57.9295 41.8706 57.7504 41.8706 57.5295H41.0706ZM41.0706 52.2354V57.5295H41.8706V52.2354H41.0706Z" fill="#B8B8B8" mask="url(#path-15-outside-3)"/>
<mask id="path-17-outside-4" maskUnits="userSpaceOnUse" x="42.5883" y="52.2942" width="2" height="5" fill="black">
<rect fill="white" x="42.5883" y="52.2942" width="2" height="5"/>
<path d="M43.5883 53.2942V56.4707Z"/>
</mask>
<path d="M43.9883 53.2942C43.9883 53.0733 43.8092 52.8942 43.5883 52.8942C43.3673 52.8942 43.1883 53.0733 43.1883 53.2942H43.9883ZM43.1883 56.4707C43.1883 56.6916 43.3673 56.8707 43.5883 56.8707C43.8092 56.8707 43.9883 56.6916 43.9883 56.4707H43.1883ZM43.1883 53.2942V56.4707H43.9883V53.2942H43.1883Z" fill="#B8B8B8" mask="url(#path-17-outside-4)"/>
<mask id="path-19-outside-5" maskUnits="userSpaceOnUse" x="43.6471" y="51.2354" width="2" height="7" fill="black">
<rect fill="white" x="43.6471" y="51.2354" width="2" height="7"/>
<path d="M44.6471 52.2354V57.5295Z"/>
</mask>
<path d="M45.0471 52.2354C45.0471 52.0144 44.868 51.8354 44.6471 51.8354C44.4262 51.8354 44.2471 52.0144 44.2471 52.2354H45.0471ZM44.2471 57.5295C44.2471 57.7504 44.4262 57.9295 44.6471 57.9295C44.868 57.9295 45.0471 57.7504 45.0471 57.5295H44.2471ZM44.2471 52.2354V57.5295H45.0471V52.2354H44.2471Z" fill="#B8B8B8" mask="url(#path-19-outside-5)"/>
<mask id="path-21-outside-6" maskUnits="userSpaceOnUse" x="45.7646" y="52.2942" width="2" height="5" fill="black">
<rect fill="white" x="45.7646" y="52.2942" width="2" height="5"/>
<path d="M46.7646 53.2942V56.4707Z"/>
</mask>
<path d="M47.1646 53.2942C47.1646 53.0733 46.9856 52.8942 46.7646 52.8942C46.5437 52.8942 46.3646 53.0733 46.3646 53.2942H47.1646ZM46.3646 56.4707C46.3646 56.6916 46.5437 56.8707 46.7646 56.8707C46.9856 56.8707 47.1646 56.6916 47.1646 56.4707H46.3646ZM46.3646 53.2942V56.4707H47.1646V53.2942H46.3646Z" fill="#B8B8B8" mask="url(#path-21-outside-6)"/>
<mask id="path-23-outside-7" maskUnits="userSpaceOnUse" x="46.8235" y="52.2942" width="2" height="4" fill="black">
<rect fill="white" x="46.8235" y="52.2942" width="2" height="4"/>
<path d="M47.8235 53.2942V55.4118Z"/>
</mask>
<path d="M48.2235 53.2942C48.2235 53.0733 48.0444 52.8942 47.8235 52.8942C47.6026 52.8942 47.4235 53.0733 47.4235 53.2942H48.2235ZM47.4235 55.4118C47.4235 55.6328 47.6026 55.8118 47.8235 55.8118C48.0444 55.8118 48.2235 55.6328 48.2235 55.4118H47.4235ZM47.4235 53.2942V55.4118H48.2235V53.2942H47.4235Z" fill="#B8B8B8" mask="url(#path-23-outside-7)"/>
<mask id="path-25-outside-8" maskUnits="userSpaceOnUse" x="48.9412" y="53.353" width="2" height="3" fill="black">
<rect fill="white" x="48.9412" y="53.353" width="2" height="3"/>
<path d="M49.9412 54.353V55.4119Z"/>
</mask>
<path d="M50.3412 54.353C50.3412 54.1321 50.1621 53.953 49.9412 53.953C49.7202 53.953 49.5412 54.1321 49.5412 54.353H50.3412ZM49.5412 55.4119C49.5412 55.6328 49.7202 55.8119 49.9412 55.8119C50.1621 55.8119 50.3412 55.6328 50.3412 55.4119H49.5412ZM49.5412 54.353V55.4119H50.3412V54.353H49.5412Z" fill="#B8B8B8" mask="url(#path-25-outside-8)"/>
<mask id="path-27-outside-9" maskUnits="userSpaceOnUse" x="51.0588" y="53.353" width="2" height="3" fill="black">
<rect fill="white" x="51.0588" y="53.353" width="2" height="3"/>
<path d="M52.0588 54.353V55.4119Z"/>
</mask>
<path d="M52.4588 54.353C52.4588 54.1321 52.2798 53.953 52.0588 53.953C51.8379 53.953 51.6588 54.1321 51.6588 54.353H52.4588ZM51.6588 55.4119C51.6588 55.6328 51.8379 55.8119 52.0588 55.8119C52.2798 55.8119 52.4588 55.6328 52.4588 55.4119H51.6588ZM51.6588 54.353V55.4119H52.4588V54.353H51.6588Z" fill="#B8B8B8" mask="url(#path-27-outside-9)"/>
<mask id="path-29-outside-10" maskUnits="userSpaceOnUse" x="52.1177" y="49.1177" width="2" height="11" fill="black">
<rect fill="white" x="52.1177" y="49.1177" width="2" height="11"/>
<path d="M53.1177 50.1177V59.6471Z"/>
</mask>
<path d="M53.5177 50.1177C53.5177 49.8968 53.3386 49.7177 53.1177 49.7177C52.8968 49.7177 52.7177 49.8968 52.7177 50.1177H53.5177ZM52.7177 59.6471C52.7177 59.868 52.8968 60.0471 53.1177 60.0471C53.3386 60.0471 53.5177 59.868 53.5177 59.6471H52.7177ZM52.7177 50.1177V59.6471H53.5177V50.1177H52.7177Z" fill="#B8B8B8" mask="url(#path-29-outside-10)"/>
<mask id="path-31-outside-11" maskUnits="userSpaceOnUse" x="54.2354" y="51.2354" width="2" height="7" fill="black">
<rect fill="white" x="54.2354" y="51.2354" width="2" height="7"/>
<path d="M55.2354 52.2354V57.5295Z"/>
</mask>
<path d="M55.6354 52.2354C55.6354 52.0144 55.4563 51.8354 55.2354 51.8354C55.0144 51.8354 54.8354 52.0144 54.8354 52.2354H55.6354ZM54.8354 57.5295C54.8354 57.7504 55.0144 57.9295 55.2354 57.9295C55.4563 57.9295 55.6354 57.7504 55.6354 57.5295H54.8354ZM54.8354 52.2354V57.5295H55.6354V52.2354H54.8354Z" fill="#B8B8B8" mask="url(#path-31-outside-11)"/>
<mask id="path-33-outside-12" maskUnits="userSpaceOnUse" x="55.2941" y="50.1765" width="2" height="8" fill="black">
<rect fill="white" x="55.2941" y="50.1765" width="2" height="8"/>
<path d="M56.2941 51.1765V57.5295Z"/>
</mask>
<path d="M56.6941 51.1765C56.6941 50.9556 56.515 50.7765 56.2941 50.7765C56.0732 50.7765 55.8941 50.9556 55.8941 51.1765H56.6941ZM55.8941 57.5295C55.8941 57.7504 56.0732 57.9295 56.2941 57.9295C56.515 57.9295 56.6941 57.7504 56.6941 57.5295H55.8941ZM55.8941 51.1765V57.5295H56.6941V51.1765H55.8941Z" fill="#B8B8B8" mask="url(#path-33-outside-12)"/>
<mask id="path-35-outside-13" maskUnits="userSpaceOnUse" x="57.4117" y="50.1765" width="2" height="9" fill="black">
<rect fill="white" x="57.4117" y="50.1765" width="2" height="9"/>
<path d="M58.4117 51.1765V58.5883Z"/>
</mask>
<path d="M58.8117 51.1765C58.8117 50.9556 58.6327 50.7765 58.4117 50.7765C58.1908 50.7765 58.0117 50.9556 58.0117 51.1765H58.8117ZM58.0117 58.5883C58.0117 58.8092 58.1908 58.9883 58.4117 58.9883C58.6327 58.9883 58.8117 58.8092 58.8117 58.5883H58.0117ZM58.0117 51.1765V58.5883H58.8117V51.1765H58.0117Z" fill="#B8B8B8" mask="url(#path-35-outside-13)"/>
<mask id="path-37-outside-14" maskUnits="userSpaceOnUse" x="59.5294" y="51.2354" width="2" height="7" fill="black">
<rect fill="white" x="59.5294" y="51.2354" width="2" height="7"/>
<path d="M60.5294 52.2354V57.5295Z"/>
</mask>
<path d="M60.9294 52.2354C60.9294 52.0144 60.7503 51.8354 60.5294 51.8354C60.3085 51.8354 60.1294 52.0144 60.1294 52.2354H60.9294ZM60.1294 57.5295C60.1294 57.7504 60.3085 57.9295 60.5294 57.9295C60.7503 57.9295 60.9294 57.7504 60.9294 57.5295H60.1294ZM60.1294 52.2354V57.5295H60.9294V52.2354H60.1294Z" fill="#B8B8B8" mask="url(#path-37-outside-14)"/>
<mask id="path-39-outside-15" maskUnits="userSpaceOnUse" x="60.5883" y="50.1765" width="2" height="8" fill="black">
<rect fill="white" x="60.5883" y="50.1765" width="2" height="8"/>
<path d="M61.5883 51.1765V57.5295Z"/>
</mask>
<path d="M61.9883 51.1765C61.9883 50.9556 61.8092 50.7765 61.5883 50.7765C61.3673 50.7765 61.1883 50.9556 61.1883 51.1765H61.9883ZM61.1883 57.5295C61.1883 57.7504 61.3673 57.9295 61.5883 57.9295C61.8092 57.9295 61.9883 57.7504 61.9883 57.5295H61.1883ZM61.1883 51.1765V57.5295H61.9883V51.1765H61.1883Z" fill="#B8B8B8" mask="url(#path-39-outside-15)"/>
<mask id="path-41-outside-16" maskUnits="userSpaceOnUse" x="62.7059" y="52.2942" width="2" height="5" fill="black">
<rect fill="white" x="62.7059" y="52.2942" width="2" height="5"/>
<path d="M63.7059 53.2942V56.4707Z"/>
</mask>
<path d="M64.1059 53.2942C64.1059 53.0733 63.9268 52.8942 63.7059 52.8942C63.485 52.8942 63.3059 53.0733 63.3059 53.2942H64.1059ZM63.3059 56.4707C63.3059 56.6916 63.485 56.8707 63.7059 56.8707C63.9268 56.8707 64.1059 56.6916 64.1059 56.4707H63.3059ZM63.3059 53.2942V56.4707H64.1059V53.2942H63.3059Z" fill="#B8B8B8" mask="url(#path-41-outside-16)"/>
<mask id="path-43-outside-17" maskUnits="userSpaceOnUse" x="64.8235" y="52.2942" width="2" height="5" fill="black">
<rect fill="white" x="64.8235" y="52.2942" width="2" height="5"/>
<path d="M65.8235 53.2942V56.4707Z"/>
</mask>
<path d="M66.2235 53.2942C66.2235 53.0733 66.0444 52.8942 65.8235 52.8942C65.6026 52.8942 65.4235 53.0733 65.4235 53.2942H66.2235ZM65.4235 56.4707C65.4235 56.6916 65.6026 56.8707 65.8235 56.8707C66.0444 56.8707 66.2235 56.6916 66.2235 56.4707H65.4235ZM65.4235 53.2942V56.4707H66.2235V53.2942H65.4235Z" fill="#B8B8B8" mask="url(#path-43-outside-17)"/>
<mask id="path-45-outside-18" maskUnits="userSpaceOnUse" x="65.8823" y="52.2942" width="2" height="5" fill="black">
<rect fill="white" x="65.8823" y="52.2942" width="2" height="5"/>
<path d="M66.8823 53.2942V56.4707Z"/>
</mask>
<path d="M67.2823 53.2942C67.2823 53.0733 67.1032 52.8942 66.8823 52.8942C66.6614 52.8942 66.4823 53.0733 66.4823 53.2942H67.2823ZM66.4823 56.4707C66.4823 56.6916 66.6614 56.8707 66.8823 56.8707C67.1032 56.8707 67.2823 56.6916 67.2823 56.4707H66.4823ZM66.4823 53.2942V56.4707H67.2823V53.2942H66.4823Z" fill="#B8B8B8" mask="url(#path-45-outside-18)"/>
<mask id="path-47-outside-19" maskUnits="userSpaceOnUse" x="68" y="52.2942" width="2" height="5" fill="black">
<rect fill="white" x="68" y="52.2942" width="2" height="5"/>
<path d="M69 53.2942V56.4707Z"/>
</mask>
<path d="M69.4 53.2942C69.4 53.0733 69.2209 52.8942 69 52.8942C68.7791 52.8942 68.6 53.0733 68.6 53.2942H69.4ZM68.6 56.4707C68.6 56.6916 68.7791 56.8707 69 56.8707C69.2209 56.8707 69.4 56.6916 69.4 56.4707H68.6ZM68.6 53.2942V56.4707H69.4V53.2942H68.6Z" fill="#B8B8B8" mask="url(#path-47-outside-19)"/>
<mask id="path-49-outside-20" maskUnits="userSpaceOnUse" x="69.0588" y="51.2354" width="2" height="7" fill="black">
<rect fill="white" x="69.0588" y="51.2354" width="2" height="7"/>
<path d="M70.0588 52.2354V57.5295Z"/>
</mask>
<path d="M70.4588 52.2354C70.4588 52.0144 70.2798 51.8354 70.0588 51.8354C69.8379 51.8354 69.6588 52.0144 69.6588 52.2354H70.4588ZM69.6588 57.5295C69.6588 57.7504 69.8379 57.9295 70.0588 57.9295C70.2798 57.9295 70.4588 57.7504 70.4588 57.5295H69.6588ZM69.6588 52.2354V57.5295H70.4588V52.2354H69.6588Z" fill="#B8B8B8" mask="url(#path-49-outside-20)"/>
<mask id="path-51-outside-21" maskUnits="userSpaceOnUse" x="71.1765" y="50.1765" width="2" height="9" fill="black">
<rect fill="white" x="71.1765" y="50.1765" width="2" height="9"/>
<path d="M72.1765 51.1765V58.5883Z"/>
</mask>
<path d="M72.5765 51.1765C72.5765 50.9556 72.3974 50.7765 72.1765 50.7765C71.9556 50.7765 71.7765 50.9556 71.7765 51.1765H72.5765ZM71.7765 58.5883C71.7765 58.8092 71.9556 58.9883 72.1765 58.9883C72.3974 58.9883 72.5765 58.8092 72.5765 58.5883H71.7765ZM71.7765 51.1765V58.5883H72.5765V51.1765H71.7765Z" fill="#B8B8B8" mask="url(#path-51-outside-21)"/>
<mask id="path-53-outside-22" maskUnits="userSpaceOnUse" x="73.2941" y="51.2354" width="2" height="7" fill="black">
<rect fill="white" x="73.2941" y="51.2354" width="2" height="7"/>
<path d="M74.2941 52.2354V57.5295Z"/>
</mask>
<path d="M74.6941 52.2354C74.6941 52.0144 74.515 51.8354 74.2941 51.8354C74.0732 51.8354 73.8941 52.0144 73.8941 52.2354H74.6941ZM73.8941 57.5295C73.8941 57.7504 74.0732 57.9295 74.2941 57.9295C74.515 57.9295 74.6941 57.7504 74.6941 57.5295H73.8941ZM73.8941 52.2354V57.5295H74.6941V52.2354H73.8941Z" fill="#B8B8B8" mask="url(#path-53-outside-22)"/>
<mask id="path-55-outside-23" maskUnits="userSpaceOnUse" x="74.3529" y="50.1765" width="2" height="9" fill="black">
<rect fill="white" x="74.3529" y="50.1765" width="2" height="9"/>
<path d="M75.3529 51.1765V58.5883Z"/>
</mask>
<path d="M75.7529 51.1765C75.7529 50.9556 75.5738 50.7765 75.3529 50.7765C75.132 50.7765 74.9529 50.9556 74.9529 51.1765H75.7529ZM74.9529 58.5883C74.9529 58.8092 75.132 58.9883 75.3529 58.9883C75.5738 58.9883 75.7529 58.8092 75.7529 58.5883H74.9529ZM74.9529 51.1765V58.5883H75.7529V51.1765H74.9529Z" fill="#B8B8B8" mask="url(#path-55-outside-23)"/>
<mask id="path-57-outside-24" maskUnits="userSpaceOnUse" x="76.4706" y="51.2354" width="2" height="7" fill="black">
<rect fill="white" x="76.4706" y="51.2354" width="2" height="7"/>
<path d="M77.4706 52.2354V57.5295Z"/>
</mask>
<path d="M77.8706 52.2354C77.8706 52.0144 77.6915 51.8354 77.4706 51.8354C77.2497 51.8354 77.0706 52.0144 77.0706 52.2354H77.8706ZM77.0706 57.5295C77.0706 57.7504 77.2497 57.9295 77.4706 57.9295C77.6915 57.9295 77.8706 57.7504 77.8706 57.5295H77.0706ZM77.0706 52.2354V57.5295H77.8706V52.2354H77.0706Z" fill="#B8B8B8" mask="url(#path-57-outside-24)"/>
<mask id="path-59-outside-25" maskUnits="userSpaceOnUse" x="77.5294" y="51.2354" width="2" height="7" fill="black">
<rect fill="white" x="77.5294" y="51.2354" width="2" height="7"/>
<path d="M78.5294 52.2354V57.5295Z"/>
</mask>
<path d="M78.9294 52.2354C78.9294 52.0144 78.7503 51.8354 78.5294 51.8354C78.3085 51.8354 78.1294 52.0144 78.1294 52.2354H78.9294ZM78.1294 57.5295C78.1294 57.7504 78.3085 57.9295 78.5294 57.9295C78.7503 57.9295 78.9294 57.7504 78.9294 57.5295H78.1294ZM78.1294 52.2354V57.5295H78.9294V52.2354H78.1294Z" fill="#B8B8B8" mask="url(#path-59-outside-25)"/>
<mask id="path-61-outside-26" maskUnits="userSpaceOnUse" x="79.6471" y="51.2354" width="2" height="7" fill="black">
<rect fill="white" x="79.6471" y="51.2354" width="2" height="7"/>
<path d="M80.6471 52.2354V57.5295Z"/>
</mask>
<path d="M81.0471 52.2354C81.0471 52.0144 80.868 51.8354 80.6471 51.8354C80.4262 51.8354 80.2471 52.0144 80.2471 52.2354H81.0471ZM80.2471 57.5295C80.2471 57.7504 80.4262 57.9295 80.6471 57.9295C80.868 57.9295 81.0471 57.7504 81.0471 57.5295H80.2471ZM80.2471 52.2354V57.5295H81.0471V52.2354H80.2471Z" fill="#B8B8B8" mask="url(#path-61-outside-26)"/>
<mask id="path-63-outside-27" maskUnits="userSpaceOnUse" x="81.7646" y="51.2354" width="2" height="7" fill="black">
<rect fill="white" x="81.7646" y="51.2354" width="2" height="7"/>
<path d="M82.7646 52.2354V57.5295Z"/>
</mask>
<path d="M83.1646 52.2354C83.1646 52.0144 82.9856 51.8354 82.7646 51.8354C82.5437 51.8354 82.3646 52.0144 82.3646 52.2354H83.1646ZM82.3646 57.5295C82.3646 57.7504 82.5437 57.9295 82.7646 57.9295C82.9856 57.9295 83.1646 57.7504 83.1646 57.5295H82.3646ZM82.3646 52.2354V57.5295H83.1646V52.2354H82.3646Z" fill="#B8B8B8" mask="url(#path-63-outside-27)"/>
<mask id="path-65-outside-28" maskUnits="userSpaceOnUse" x="82.8235" y="49.1177" width="2" height="11" fill="black">
<rect fill="white" x="82.8235" y="49.1177" width="2" height="11"/>
<path d="M83.8235 50.1177V59.6471Z"/>
</mask>
<path d="M84.2235 50.1177C84.2235 49.8968 84.0444 49.7177 83.8235 49.7177C83.6026 49.7177 83.4235 49.8968 83.4235 50.1177H84.2235ZM83.4235 59.6471C83.4235 59.868 83.6026 60.0471 83.8235 60.0471C84.0444 60.0471 84.2235 59.868 84.2235 59.6471H83.4235ZM83.4235 50.1177V59.6471H84.2235V50.1177H83.4235Z" fill="#B8B8B8" mask="url(#path-65-outside-28)"/>
<mask id="path-67-outside-29" maskUnits="userSpaceOnUse" x="84.9412" y="48.0588" width="2" height="14" fill="black">
<rect fill="white" x="84.9412" y="48.0588" width="2" height="14"/>
<path d="M85.9412 49.0588V60.7059Z"/>
</mask>
<path d="M86.3412 49.0588C86.3412 48.8379 86.1621 48.6588 85.9412 48.6588C85.7202 48.6588 85.5412 48.8379 85.5412 49.0588H86.3412ZM85.5412 60.7059C85.5412 60.9268 85.7202 61.1059 85.9412 61.1059C86.1621 61.1059 86.3412 60.9268 86.3412 60.7059H85.5412ZM85.5412 49.0588V60.7059H86.3412V49.0588H85.5412Z" fill="#B8B8B8" mask="url(#path-67-outside-29)"/>
<mask id="path-69-outside-30" maskUnits="userSpaceOnUse" x="86" y="50.1765" width="2" height="9" fill="black">
<rect fill="white" x="86" y="50.1765" width="2" height="9"/>
<path d="M87 51.1765V58.5883Z"/>
</mask>
<path d="M87.4 51.1765C87.4 50.9556 87.2209 50.7765 87 50.7765C86.7791 50.7765 86.6 50.9556 86.6 51.1765H87.4ZM86.6 58.5883C86.6 58.8092 86.7791 58.9883 87 58.9883C87.2209 58.9883 87.4 58.8092 87.4 58.5883H86.6ZM86.6 51.1765V58.5883H87.4V51.1765H86.6Z" fill="#B8B8B8" mask="url(#path-69-outside-30)"/>
<mask id="path-71-outside-31" maskUnits="userSpaceOnUse" x="88.1177" y="51.2354" width="2" height="7" fill="black">
<rect fill="white" x="88.1177" y="51.2354" width="2" height="7"/>
<path d="M89.1177 52.2354V57.5295Z"/>
</mask>
<path d="M89.5177 52.2354C89.5177 52.0144 89.3386 51.8354 89.1177 51.8354C88.8968 51.8354 88.7177 52.0144 88.7177 52.2354H89.5177ZM88.7177 57.5295C88.7177 57.7504 88.8968 57.9295 89.1177 57.9295C89.3386 57.9295 89.5177 57.7504 89.5177 57.5295H88.7177ZM88.7177 52.2354V57.5295H89.5177V52.2354H88.7177Z" fill="#B8B8B8" mask="url(#path-71-outside-31)"/>
<mask id="path-73-outside-32" maskUnits="userSpaceOnUse" x="90.2354" y="51.2354" width="2" height="7" fill="black">
<rect fill="white" x="90.2354" y="51.2354" width="2" height="7"/>
<path d="M91.2354 52.2354V57.5295Z"/>
</mask>
<path d="M91.6354 52.2354C91.6354 52.0144 91.4563 51.8354 91.2354 51.8354C91.0144 51.8354 90.8354 52.0144 90.8354 52.2354H91.6354ZM90.8354 57.5295C90.8354 57.7504 91.0144 57.9295 91.2354 57.9295C91.4563 57.9295 91.6354 57.7504 91.6354 57.5295H90.8354ZM90.8354 52.2354V57.5295H91.6354V52.2354H90.8354Z" fill="#B8B8B8" mask="url(#path-73-outside-32)"/>
<mask id="path-75-outside-33" maskUnits="userSpaceOnUse" x="91.2941" y="51.2354" width="2" height="7" fill="black">
<rect fill="white" x="91.2941" y="51.2354" width="2" height="7"/>
<path d="M92.2941 52.2354V57.5295Z"/>
</mask>
<path d="M92.6941 52.2354C92.6941 52.0144 92.515 51.8354 92.2941 51.8354C92.0732 51.8354 91.8941 52.0144 91.8941 52.2354H92.6941ZM91.8941 57.5295C91.8941 57.7504 92.0732 57.9295 92.2941 57.9295C92.515 57.9295 92.6941 57.7504 92.6941 57.5295H91.8941ZM91.8941 52.2354V57.5295H92.6941V52.2354H91.8941Z" fill="#B8B8B8" mask="url(#path-75-outside-33)"/>
<mask id="path-77-outside-34" maskUnits="userSpaceOnUse" x="93.4117" y="50.1765" width="2" height="9" fill="black">
<rect fill="white" x="93.4117" y="50.1765" width="2" height="9"/>
<path d="M94.4117 51.1765V58.5883Z"/>
</mask>
<path d="M94.8117 51.1765C94.8117 50.9556 94.6327 50.7765 94.4117 50.7765C94.1908 50.7765 94.0117 50.9556 94.0117 51.1765H94.8117ZM94.0117 58.5883C94.0117 58.8092 94.1908 58.9883 94.4117 58.9883C94.6327 58.9883 94.8117 58.8092 94.8117 58.5883H94.0117ZM94.0117 51.1765V58.5883H94.8117V51.1765H94.0117Z" fill="#B8B8B8" mask="url(#path-77-outside-34)"/>
<mask id="path-79-outside-35" maskUnits="userSpaceOnUse" x="95.5294" y="50.1765" width="2" height="8" fill="black">
<rect fill="white" x="95.5294" y="50.1765" width="2" height="8"/>
<path d="M96.5294 51.1765V57.5295Z"/>
</mask>
<path d="M96.9294 51.1765C96.9294 50.9556 96.7503 50.7765 96.5294 50.7765C96.3085 50.7765 96.1294 50.9556 96.1294 51.1765H96.9294ZM96.1294 57.5295C96.1294 57.7504 96.3085 57.9295 96.5294 57.9295C96.7503 57.9295 96.9294 57.7504 96.9294 57.5295H96.1294ZM96.1294 51.1765V57.5295H96.9294V51.1765H96.1294Z" fill="#B8B8B8" mask="url(#path-79-outside-35)"/>
<mask id="path-81-outside-36" maskUnits="userSpaceOnUse" x="96.5883" y="50.1765" width="2" height="9" fill="black">
<rect fill="white" x="96.5883" y="50.1765" width="2" height="9"/>
<path d="M97.5883 51.1765V58.5883Z"/>
</mask>
<path d="M97.9883 51.1765C97.9883 50.9556 97.8092 50.7765 97.5883 50.7765C97.3673 50.7765 97.1883 50.9556 97.1883 51.1765H97.9883ZM97.1883 58.5883C97.1883 58.8092 97.3673 58.9883 97.5883 58.9883C97.8092 58.9883 97.9883 58.8092 97.9883 58.5883H97.1883ZM97.1883 51.1765V58.5883H97.9883V51.1765H97.1883Z" fill="#B8B8B8" mask="url(#path-81-outside-36)"/>
<mask id="path-83-outside-37" maskUnits="userSpaceOnUse" x="98.7059" y="50.1765" width="2" height="9" fill="black">
<rect fill="white" x="98.7059" y="50.1765" width="2" height="9"/>
<path d="M99.7059 51.1765V58.5883Z"/>
</mask>
<path d="M100.106 51.1765C100.106 50.9556 99.9268 50.7765 99.7059 50.7765C99.485 50.7765 99.3059 50.9556 99.3059 51.1765H100.106ZM99.3059 58.5883C99.3059 58.8092 99.485 58.9883 99.7059 58.9883C99.9268 58.9883 100.106 58.8092 100.106 58.5883H99.3059ZM99.3059 51.1765V58.5883H100.106V51.1765H99.3059Z" fill="#B8B8B8" mask="url(#path-83-outside-37)"/>
<mask id="path-85-outside-38" maskUnits="userSpaceOnUse" x="99.7646" y="47" width="2" height="16" fill="black">
<rect fill="white" x="99.7646" y="47" width="2" height="16"/>
<path d="M100.765 48V61.7647Z"/>
</mask>
<path d="M101.165 48C101.165 47.7791 100.986 47.6 100.765 47.6C100.544 47.6 100.365 47.7791 100.365 48H101.165ZM100.365 61.7647C100.365 61.9856 100.544 62.1647 100.765 62.1647C100.986 62.1647 101.165 61.9856 101.165 61.7647H100.365ZM100.365 48V61.7647H101.165V48H100.365Z" fill="#B8B8B8" mask="url(#path-85-outside-38)"/>
<mask id="path-87-outside-39" maskUnits="userSpaceOnUse" x="101.882" y="48.0588" width="2" height="14" fill="black">
<rect fill="white" x="101.882" y="48.0588" width="2" height="14"/>
<path d="M102.882 49.0588V60.7059Z"/>
</mask>
<path d="M103.282 49.0588C103.282 48.8379 103.103 48.6588 102.882 48.6588C102.661 48.6588 102.482 48.8379 102.482 49.0588H103.282ZM102.482 60.7059C102.482 60.9268 102.661 61.1059 102.882 61.1059C103.103 61.1059 103.282 60.9268 103.282 60.7059H102.482ZM102.482 49.0588V60.7059H103.282V49.0588H102.482Z" fill="#B8B8B8" mask="url(#path-87-outside-39)"/>
<mask id="path-89-outside-40" maskUnits="userSpaceOnUse" x="104" y="50.1765" width="2" height="9" fill="black">
<rect fill="white" x="104" y="50.1765" width="2" height="9"/>
<path d="M105 51.1765V58.5883Z"/>
</mask>
<path d="M105.4 51.1765C105.4 50.9556 105.221 50.7765 105 50.7765C104.779 50.7765 104.6 50.9556 104.6 51.1765H105.4ZM104.6 58.5883C104.6 58.8092 104.779 58.9883 105 58.9883C105.221 58.9883 105.4 58.8092 105.4 58.5883H104.6ZM104.6 51.1765V58.5883H105.4V51.1765H104.6Z" fill="#B8B8B8" mask="url(#path-89-outside-40)"/>
<mask id="path-91-outside-41" maskUnits="userSpaceOnUse" x="105.059" y="50.1765" width="2" height="9" fill="black">
<rect fill="white" x="105.059" y="50.1765" width="2" height="9"/>
<path d="M106.059 51.1765V58.5883Z"/>
</mask>
<path d="M106.459 51.1765C106.459 50.9556 106.28 50.7765 106.059 50.7765C105.838 50.7765 105.659 50.9556 105.659 51.1765H106.459ZM105.659 58.5883C105.659 58.8092 105.838 58.9883 106.059 58.9883C106.28 58.9883 106.459 58.8092 106.459 58.5883H105.659ZM105.659 51.1765V58.5883H106.459V51.1765H105.659Z" fill="#B8B8B8" mask="url(#path-91-outside-41)"/>
<mask id="path-93-outside-42" maskUnits="userSpaceOnUse" x="107.177" y="51.2354" width="2" height="7" fill="black">
<rect fill="white" x="107.177" y="51.2354" width="2" height="7"/>
<path d="M108.177 52.2354V57.5295Z"/>
</mask>
<path d="M108.577 52.2354C108.577 52.0144 108.397 51.8354 108.177 51.8354C107.956 51.8354 107.777 52.0144 107.777 52.2354H108.577ZM107.777 57.5295C107.777 57.7504 107.956 57.9295 108.177 57.9295C108.397 57.9295 108.577 57.7504 108.577 57.5295H107.777ZM107.777 52.2354V57.5295H108.577V52.2354H107.777Z" fill="#B8B8B8" mask="url(#path-93-outside-42)"/>
<mask id="path-95-outside-43" maskUnits="userSpaceOnUse" x="108.235" y="50.1765" width="2" height="9" fill="black">
<rect fill="white" x="108.235" y="50.1765" width="2" height="9"/>
<path d="M109.235 51.1765V58.5883Z"/>
</mask>
<path d="M109.635 51.1765C109.635 50.9556 109.456 50.7765 109.235 50.7765C109.014 50.7765 108.835 50.9556 108.835 51.1765H109.635ZM108.835 58.5883C108.835 58.8092 109.014 58.9883 109.235 58.9883C109.456 58.9883 109.635 58.8092 109.635 58.5883H108.835ZM108.835 51.1765V58.5883H109.635V51.1765H108.835Z" fill="#B8B8B8" mask="url(#path-95-outside-43)"/>
<mask id="path-97-outside-44" maskUnits="userSpaceOnUse" x="110.353" y="50.1765" width="2" height="9" fill="black">
<rect fill="white" x="110.353" y="50.1765" width="2" height="9"/>
<path d="M111.353 51.1765V58.5883Z"/>
</mask>
<path d="M111.753 51.1765C111.753 50.9556 111.574 50.7765 111.353 50.7765C111.132 50.7765 110.953 50.9556 110.953 51.1765H111.753ZM110.953 58.5883C110.953 58.8092 111.132 58.9883 111.353 58.9883C111.574 58.9883 111.753 58.8092 111.753 58.5883H110.953ZM110.953 51.1765V58.5883H111.753V51.1765H110.953Z" fill="#B8B8B8" mask="url(#path-97-outside-44)"/>
<mask id="path-99-outside-45" maskUnits="userSpaceOnUse" x="112.471" y="50.1765" width="2" height="9" fill="black">
<rect fill="white" x="112.471" y="50.1765" width="2" height="9"/>
<path d="M113.471 51.1765V58.5883Z"/>
</mask>
<path d="M113.871 51.1765C113.871 50.9556 113.691 50.7765 113.471 50.7765C113.25 50.7765 113.071 50.9556 113.071 51.1765H113.871ZM113.071 58.5883C113.071 58.8092 113.25 58.9883 113.471 58.9883C113.691 58.9883 113.871 58.8092 113.871 58.5883H113.071ZM113.071 51.1765V58.5883H113.871V51.1765H113.071Z" fill="#B8B8B8" mask="url(#path-99-outside-45)"/>
<mask id="path-101-outside-46" maskUnits="userSpaceOnUse" x="113.529" y="51.2354" width="2" height="7" fill="black">
<rect fill="white" x="113.529" y="51.2354" width="2" height="7"/>
<path d="M114.529 52.2354V57.5295Z"/>
</mask>
<path d="M114.929 52.2354C114.929 52.0144 114.75 51.8354 114.529 51.8354C114.309 51.8354 114.129 52.0144 114.129 52.2354H114.929ZM114.129 57.5295C114.129 57.7504 114.309 57.9295 114.529 57.9295C114.75 57.9295 114.929 57.7504 114.929 57.5295H114.129ZM114.129 52.2354V57.5295H114.929V52.2354H114.129Z" fill="#B8B8B8" mask="url(#path-101-outside-46)"/>
<mask id="path-103-outside-47" maskUnits="userSpaceOnUse" x="115.647" y="51.2354" width="2" height="7" fill="black">
<rect fill="white" x="115.647" y="51.2354" width="2" height="7"/>
<path d="M116.647 52.2354V57.5295Z"/>
</mask>
<path d="M117.047 52.2354C117.047 52.0144 116.868 51.8354 116.647 51.8354C116.426 51.8354 116.247 52.0144 116.247 52.2354H117.047ZM116.247 57.5295C116.247 57.7504 116.426 57.9295 116.647 57.9295C116.868 57.9295 117.047 57.7504 117.047 57.5295H116.247ZM116.247 52.2354V57.5295H117.047V52.2354H116.247Z" fill="#B8B8B8" mask="url(#path-103-outside-47)"/>
<mask id="path-105-outside-48" maskUnits="userSpaceOnUse" x="116.706" y="47" width="2" height="16" fill="black">
<rect fill="white" x="116.706" y="47" width="2" height="16"/>
<path d="M117.706 48V61.7647Z"/>
</mask>
<path d="M118.106 48C118.106 47.7791 117.927 47.6 117.706 47.6C117.485 47.6 117.306 47.7791 117.306 48H118.106ZM117.306 61.7647C117.306 61.9856 117.485 62.1647 117.706 62.1647C117.927 62.1647 118.106 61.9856 118.106 61.7647H117.306ZM117.306 48V61.7647H118.106V48H117.306Z" fill="#B8B8B8" mask="url(#path-105-outside-48)"/>
<mask id="path-107-outside-49" maskUnits="userSpaceOnUse" x="118.823" y="49.1177" width="2" height="11" fill="black">
<rect fill="white" x="118.823" y="49.1177" width="2" height="11"/>
<path d="M119.823 50.1177V59.6471Z"/>
</mask>
<path d="M120.223 50.1177C120.223 49.8968 120.044 49.7177 119.823 49.7177C119.603 49.7177 119.423 49.8968 119.423 50.1177H120.223ZM119.423 59.6471C119.423 59.868 119.603 60.0471 119.823 60.0471C120.044 60.0471 120.223 59.868 120.223 59.6471H119.423ZM119.423 50.1177V59.6471H120.223V50.1177H119.423Z" fill="#B8B8B8" mask="url(#path-107-outside-49)"/>
<mask id="path-109-outside-50" maskUnits="userSpaceOnUse" x="120.941" y="50.1765" width="2" height="9" fill="black">
<rect fill="white" x="120.941" y="50.1765" width="2" height="9"/>
<path d="M121.941 51.1765V58.5883Z"/>
</mask>
<path d="M122.341 51.1765C122.341 50.9556 122.162 50.7765 121.941 50.7765C121.72 50.7765 121.541 50.9556 121.541 51.1765H122.341ZM121.541 58.5883C121.541 58.8092 121.72 58.9883 121.941 58.9883C122.162 58.9883 122.341 58.8092 122.341 58.5883H121.541ZM121.541 51.1765V58.5883H122.341V51.1765H121.541Z" fill="#B8B8B8" mask="url(#path-109-outside-50)"/>
<mask id="path-111-outside-51" maskUnits="userSpaceOnUse" x="122" y="51.2354" width="2" height="7" fill="black">
<rect fill="white" x="122" y="51.2354" width="2" height="7"/>
<path d="M123 52.2354V57.5295Z"/>
</mask>
<path d="M123.4 52.2354C123.4 52.0144 123.221 51.8354 123 51.8354C122.779 51.8354 122.6 52.0144 122.6 52.2354H123.4ZM122.6 57.5295C122.6 57.7504 122.779 57.9295 123 57.9295C123.221 57.9295 123.4 57.7504 123.4 57.5295H122.6ZM122.6 52.2354V57.5295H123.4V52.2354H122.6Z" fill="#B8B8B8" mask="url(#path-111-outside-51)"/>
<mask id="path-113-outside-52" maskUnits="userSpaceOnUse" x="124.118" y="50.1765" width="2" height="9" fill="black">
<rect fill="white" x="124.118" y="50.1765" width="2" height="9"/>
<path d="M125.118 51.1765V58.5883Z"/>
</mask>
<path d="M125.518 51.1765C125.518 50.9556 125.339 50.7765 125.118 50.7765C124.897 50.7765 124.718 50.9556 124.718 51.1765H125.518ZM124.718 58.5883C124.718 58.8092 124.897 58.9883 125.118 58.9883C125.339 58.9883 125.518 58.8092 125.518 58.5883H124.718ZM124.718 51.1765V58.5883H125.518V51.1765H124.718Z" fill="#B8B8B8" mask="url(#path-113-outside-52)"/>
<mask id="path-115-outside-53" maskUnits="userSpaceOnUse" x="126.235" y="50.1765" width="2" height="9" fill="black">
<rect fill="white" x="126.235" y="50.1765" width="2" height="9"/>
<path d="M127.235 51.1765V58.5883Z"/>
</mask>
<path d="M127.635 51.1765C127.635 50.9556 127.456 50.7765 127.235 50.7765C127.014 50.7765 126.835 50.9556 126.835 51.1765H127.635ZM126.835 58.5883C126.835 58.8092 127.014 58.9883 127.235 58.9883C127.456 58.9883 127.635 58.8092 127.635 58.5883H126.835ZM126.835 51.1765V58.5883H127.635V51.1765H126.835Z" fill="#B8B8B8" mask="url(#path-115-outside-53)"/>
<mask id="path-117-outside-54" maskUnits="userSpaceOnUse" x="127.294" y="50.1765" width="2" height="9" fill="black">
<rect fill="white" x="127.294" y="50.1765" width="2" height="9"/>
<path d="M128.294 51.1765V58.5883Z"/>
</mask>
<path d="M128.694 51.1765C128.694 50.9556 128.515 50.7765 128.294 50.7765C128.073 50.7765 127.894 50.9556 127.894 51.1765H128.694ZM127.894 58.5883C127.894 58.8092 128.073 58.9883 128.294 58.9883C128.515 58.9883 128.694 58.8092 128.694 58.5883H127.894ZM127.894 51.1765V58.5883H128.694V51.1765H127.894Z" fill="#B8B8B8" mask="url(#path-117-outside-54)"/>
<mask id="path-119-outside-55" maskUnits="userSpaceOnUse" x="129.412" y="50.1765" width="2" height="9" fill="black">
<rect fill="white" x="129.412" y="50.1765" width="2" height="9"/>
<path d="M130.412 51.1765V58.5883Z"/>
</mask>
<path d="M130.812 51.1765C130.812 50.9556 130.633 50.7765 130.412 50.7765C130.191 50.7765 130.012 50.9556 130.012 51.1765H130.812ZM130.012 58.5883C130.012 58.8092 130.191 58.9883 130.412 58.9883C130.633 58.9883 130.812 58.8092 130.812 58.5883H130.012ZM130.012 51.1765V58.5883H130.812V51.1765H130.012Z" fill="#B8B8B8" mask="url(#path-119-outside-55)"/>
<mask id="path-121-outside-56" maskUnits="userSpaceOnUse" x="130.471" y="50.1765" width="2" height="9" fill="black">
<rect fill="white" x="130.471" y="50.1765" width="2" height="9"/>
<path d="M131.471 51.1765V58.5883Z"/>
</mask>
<path d="M131.871 51.1765C131.871 50.9556 131.691 50.7765 131.471 50.7765C131.25 50.7765 131.071 50.9556 131.071 51.1765H131.871ZM131.071 58.5883C131.071 58.8092 131.25 58.9883 131.471 58.9883C131.691 58.9883 131.871 58.8092 131.871 58.5883H131.071ZM131.071 51.1765V58.5883H131.871V51.1765H131.071Z" fill="#B8B8B8" mask="url(#path-121-outside-56)"/>
<mask id="path-123-outside-57" maskUnits="userSpaceOnUse" x="132.588" y="48.0588" width="2" height="14" fill="black">
<rect fill="white" x="132.588" y="48.0588" width="2" height="14"/>
<path d="M133.588 49.0588V60.7059Z"/>
</mask>
<path d="M133.988 49.0588C133.988 48.8379 133.809 48.6588 133.588 48.6588C133.367 48.6588 133.188 48.8379 133.188 49.0588H133.988ZM133.188 60.7059C133.188 60.9268 133.367 61.1059 133.588 61.1059C133.809 61.1059 133.988 60.9268 133.988 60.7059H133.188ZM133.188 49.0588V60.7059H133.988V49.0588H133.188Z" fill="#B8B8B8" mask="url(#path-123-outside-57)"/>
<mask id="path-125-outside-58" maskUnits="userSpaceOnUse" x="134.706" y="49.1177" width="2" height="11" fill="black">
<rect fill="white" x="134.706" y="49.1177" width="2" height="11"/>
<path d="M135.706 50.1177V59.6471Z"/>
</mask>
<path d="M136.106 50.1177C136.106 49.8968 135.927 49.7177 135.706 49.7177C135.485 49.7177 135.306 49.8968 135.306 50.1177H136.106ZM135.306 59.6471C135.306 59.868 135.485 60.0471 135.706 60.0471C135.927 60.0471 136.106 59.868 136.106 59.6471H135.306ZM135.306 50.1177V59.6471H136.106V50.1177H135.306Z" fill="#B8B8B8" mask="url(#path-125-outside-58)"/>
<mask id="path-127-outside-59" maskUnits="userSpaceOnUse" x="135.765" y="50.1765" width="2" height="9" fill="black">
<rect fill="white" x="135.765" y="50.1765" width="2" height="9"/>
<path d="M136.765 51.1765V58.5883Z"/>
</mask>
<path d="M137.165 51.1765C137.165 50.9556 136.986 50.7765 136.765 50.7765C136.544 50.7765 136.365 50.9556 136.365 51.1765H137.165ZM136.365 58.5883C136.365 58.8092 136.544 58.9883 136.765 58.9883C136.986 58.9883 137.165 58.8092 137.165 58.5883H136.365ZM136.365 51.1765V58.5883H137.165V51.1765H136.365Z" fill="#B8B8B8" mask="url(#path-127-outside-59)"/>
<mask id="path-129-outside-60" maskUnits="userSpaceOnUse" x="137.882" y="51.2354" width="2" height="7" fill="black">
<rect fill="white" x="137.882" y="51.2354" width="2" height="7"/>
<path d="M138.882 52.2354V57.5295Z"/>
</mask>
<path d="M139.282 52.2354C139.282 52.0144 139.103 51.8354 138.882 51.8354C138.661 51.8354 138.482 52.0144 138.482 52.2354H139.282ZM138.482 57.5295C138.482 57.7504 138.661 57.9295 138.882 57.9295C139.103 57.9295 139.282 57.7504 139.282 57.5295H138.482ZM138.482 52.2354V57.5295H139.282V52.2354H138.482Z" fill="#B8B8B8" mask="url(#path-129-outside-60)"/>
<mask id="path-131-outside-61" maskUnits="userSpaceOnUse" x="138.941" y="51.2354" width="2" height="7" fill="black">
<rect fill="white" x="138.941" y="51.2354" width="2" height="7"/>
<path d="M139.941 52.2354V57.5295Z"/>
</mask>
<path d="M140.341 52.2354C140.341 52.0144 140.162 51.8354 139.941 51.8354C139.72 51.8354 139.541 52.0144 139.541 52.2354H140.341ZM139.541 57.5295C139.541 57.7504 139.72 57.9295 139.941 57.9295C140.162 57.9295 140.341 57.7504 140.341 57.5295H139.541ZM139.541 52.2354V57.5295H140.341V52.2354H139.541Z" fill="#B8B8B8" mask="url(#path-131-outside-61)"/>
<mask id="path-133-outside-62" maskUnits="userSpaceOnUse" x="141.059" y="50.1765" width="2" height="9" fill="black">
<rect fill="white" x="141.059" y="50.1765" width="2" height="9"/>
<path d="M142.059 51.1765V58.5883Z"/>
</mask>
<path d="M142.459 51.1765C142.459 50.9556 142.28 50.7765 142.059 50.7765C141.838 50.7765 141.659 50.9556 141.659 51.1765H142.459ZM141.659 58.5883C141.659 58.8092 141.838 58.9883 142.059 58.9883C142.28 58.9883 142.459 58.8092 142.459 58.5883H141.659ZM141.659 51.1765V58.5883H142.459V51.1765H141.659Z" fill="#B8B8B8" mask="url(#path-133-outside-62)"/>
<mask id="path-135-outside-63" maskUnits="userSpaceOnUse" x="143.177" y="51.2354" width="2" height="7" fill="black">
<rect fill="white" x="143.177" y="51.2354" width="2" height="7"/>
<path d="M144.177 52.2354V57.5295Z"/>
</mask>
<path d="M144.577 52.2354C144.577 52.0144 144.397 51.8354 144.177 51.8354C143.956 51.8354 143.777 52.0144 143.777 52.2354H144.577ZM143.777 57.5295C143.777 57.7504 143.956 57.9295 144.177 57.9295C144.397 57.9295 144.577 57.7504 144.577 57.5295H143.777ZM143.777 52.2354V57.5295H144.577V52.2354H143.777Z" fill="#B8B8B8" mask="url(#path-135-outside-63)"/>
<mask id="path-137-outside-64" maskUnits="userSpaceOnUse" x="144.235" y="51.2354" width="2" height="7" fill="black">
<rect fill="white" x="144.235" y="51.2354" width="2" height="7"/>
<path d="M145.235 52.2354V57.5295Z"/>
</mask>
<path d="M145.635 52.2354C145.635 52.0144 145.456 51.8354 145.235 51.8354C145.014 51.8354 144.835 52.0144 144.835 52.2354H145.635ZM144.835 57.5295C144.835 57.7504 145.014 57.9295 145.235 57.9295C145.456 57.9295 145.635 57.7504 145.635 57.5295H144.835ZM144.835 52.2354V57.5295H145.635V52.2354H144.835Z" fill="#B8B8B8" mask="url(#path-137-outside-64)"/>
<mask id="path-139-outside-65" maskUnits="userSpaceOnUse" x="146.353" y="51.2354" width="2" height="7" fill="black">
<rect fill="white" x="146.353" y="51.2354" width="2" height="7"/>
<path d="M147.353 52.2354V57.5295Z"/>
</mask>
<path d="M147.753 52.2354C147.753 52.0144 147.574 51.8354 147.353 51.8354C147.132 51.8354 146.953 52.0144 146.953 52.2354H147.753ZM146.953 57.5295C146.953 57.7504 147.132 57.9295 147.353 57.9295C147.574 57.9295 147.753 57.7504 147.753 57.5295H146.953ZM146.953 52.2354V57.5295H147.753V52.2354H146.953Z" fill="#B8B8B8" mask="url(#path-139-outside-65)"/>
<mask id="path-141-outside-66" maskUnits="userSpaceOnUse" x="147.412" y="50.1765" width="2" height="9" fill="black">
<rect fill="white" x="147.412" y="50.1765" width="2" height="9"/>
<path d="M148.412 51.1765V58.5883Z"/>
</mask>
<path d="M148.812 51.1765C148.812 50.9556 148.633 50.7765 148.412 50.7765C148.191 50.7765 148.012 50.9556 148.012 51.1765H148.812ZM148.012 58.5883C148.012 58.8092 148.191 58.9883 148.412 58.9883C148.633 58.9883 148.812 58.8092 148.812 58.5883H148.012ZM148.012 51.1765V58.5883H148.812V51.1765H148.012Z" fill="#B8B8B8" mask="url(#path-141-outside-66)"/>
<mask id="path-143-outside-67" maskUnits="userSpaceOnUse" x="149.529" y="47" width="2" height="16" fill="black">
<rect fill="white" x="149.529" y="47" width="2" height="16"/>
<path d="M150.529 48V61.7647Z"/>
</mask>
<path d="M150.929 48C150.929 47.7791 150.75 47.6 150.529 47.6C150.309 47.6 150.129 47.7791 150.129 48H150.929ZM150.129 61.7647C150.129 61.9856 150.309 62.1647 150.529 62.1647C150.75 62.1647 150.929 61.9856 150.929 61.7647H150.129ZM150.129 48V61.7647H150.929V48H150.129Z" fill="#B8B8B8" mask="url(#path-143-outside-67)"/>
<mask id="path-145-outside-68" maskUnits="userSpaceOnUse" x="151.647" y="50.1765" width="2" height="9" fill="black">
<rect fill="white" x="151.647" y="50.1765" width="2" height="9"/>
<path d="M152.647 51.1765V58.5883Z"/>
</mask>
<path d="M153.047 51.1765C153.047 50.9556 152.868 50.7765 152.647 50.7765C152.426 50.7765 152.247 50.9556 152.247 51.1765H153.047ZM152.247 58.5883C152.247 58.8092 152.426 58.9883 152.647 58.9883C152.868 58.9883 153.047 58.8092 153.047 58.5883H152.247ZM152.247 51.1765V58.5883H153.047V51.1765H152.247Z" fill="#B8B8B8" mask="url(#path-145-outside-68)"/>
<mask id="path-147-outside-69" maskUnits="userSpaceOnUse" x="152.706" y="50.1765" width="2" height="8" fill="black">
<rect fill="white" x="152.706" y="50.1765" width="2" height="8"/>
<path d="M153.706 51.1765V57.5295Z"/>
</mask>
<path d="M154.106 51.1765C154.106 50.9556 153.927 50.7765 153.706 50.7765C153.485 50.7765 153.306 50.9556 153.306 51.1765H154.106ZM153.306 57.5295C153.306 57.7504 153.485 57.9295 153.706 57.9295C153.927 57.9295 154.106 57.7504 154.106 57.5295H153.306ZM153.306 51.1765V57.5295H154.106V51.1765H153.306Z" fill="#B8B8B8" mask="url(#path-147-outside-69)"/>
<mask id="path-149-outside-70" maskUnits="userSpaceOnUse" x="154.823" y="51.2354" width="2" height="7" fill="black">
<rect fill="white" x="154.823" y="51.2354" width="2" height="7"/>
<path d="M155.823 52.2354V57.5295Z"/>
</mask>
<path d="M156.223 52.2354C156.223 52.0144 156.044 51.8354 155.823 51.8354C155.603 51.8354 155.423 52.0144 155.423 52.2354H156.223ZM155.423 57.5295C155.423 57.7504 155.603 57.9295 155.823 57.9295C156.044 57.9295 156.223 57.7504 156.223 57.5295H155.423ZM155.423 52.2354V57.5295H156.223V52.2354H155.423Z" fill="#B8B8B8" mask="url(#path-149-outside-70)"/>
<mask id="path-151-outside-71" maskUnits="userSpaceOnUse" x="156.941" y="50.1765" width="2" height="9" fill="black">
<rect fill="white" x="156.941" y="50.1765" width="2" height="9"/>
<path d="M157.941 51.1765V58.5883Z"/>
</mask>
<path d="M158.341 51.1765C158.341 50.9556 158.162 50.7765 157.941 50.7765C157.72 50.7765 157.541 50.9556 157.541 51.1765H158.341ZM157.541 58.5883C157.541 58.8092 157.72 58.9883 157.941 58.9883C158.162 58.9883 158.341 58.8092 158.341 58.5883H157.541ZM157.541 51.1765V58.5883H158.341V51.1765H157.541Z" fill="#B8B8B8" mask="url(#path-151-outside-71)"/>
<mask id="path-153-outside-72" maskUnits="userSpaceOnUse" x="158" y="50.1765" width="2" height="9" fill="black">
<rect fill="white" x="158" y="50.1765" width="2" height="9"/>
<path d="M159 51.1765V58.5883Z"/>
</mask>
<path d="M159.4 51.1765C159.4 50.9556 159.221 50.7765 159 50.7765C158.779 50.7765 158.6 50.9556 158.6 51.1765H159.4ZM158.6 58.5883C158.6 58.8092 158.779 58.9883 159 58.9883C159.221 58.9883 159.4 58.8092 159.4 58.5883H158.6ZM158.6 51.1765V58.5883H159.4V51.1765H158.6Z" fill="#B8B8B8" mask="url(#path-153-outside-72)"/>
<mask id="path-155-outside-73" maskUnits="userSpaceOnUse" x="160.118" y="50.1765" width="2" height="9" fill="black">
<rect fill="white" x="160.118" y="50.1765" width="2" height="9"/>
<path d="M161.118 51.1765V58.5883Z"/>
</mask>
<path d="M161.518 51.1765C161.518 50.9556 161.339 50.7765 161.118 50.7765C160.897 50.7765 160.718 50.9556 160.718 51.1765H161.518ZM160.718 58.5883C160.718 58.8092 160.897 58.9883 161.118 58.9883C161.339 58.9883 161.518 58.8092 161.518 58.5883H160.718ZM160.718 51.1765V58.5883H161.518V51.1765H160.718Z" fill="#B8B8B8" mask="url(#path-155-outside-73)"/>
<mask id="path-157-outside-74" maskUnits="userSpaceOnUse" x="161.177" y="50.1765" width="2" height="9" fill="black">
<rect fill="white" x="161.177" y="50.1765" width="2" height="9"/>
<path d="M162.177 51.1765V58.5883Z"/>
</mask>
<path d="M162.577 51.1765C162.577 50.9556 162.397 50.7765 162.177 50.7765C161.956 50.7765 161.777 50.9556 161.777 51.1765H162.577ZM161.777 58.5883C161.777 58.8092 161.956 58.9883 162.177 58.9883C162.397 58.9883 162.577 58.8092 162.577 58.5883H161.777ZM161.777 51.1765V58.5883H162.577V51.1765H161.777Z" fill="#B8B8B8" mask="url(#path-157-outside-74)"/>
<mask id="path-159-outside-75" maskUnits="userSpaceOnUse" x="163.294" y="49.1177" width="2" height="11" fill="black">
<rect fill="white" x="163.294" y="49.1177" width="2" height="11"/>
<path d="M164.294 50.1177V59.6471Z"/>
</mask>
<path d="M164.694 50.1177C164.694 49.8968 164.515 49.7177 164.294 49.7177C164.073 49.7177 163.894 49.8968 163.894 50.1177H164.694ZM163.894 59.6471C163.894 59.868 164.073 60.0471 164.294 60.0471C164.515 60.0471 164.694 59.868 164.694 59.6471H163.894ZM163.894 50.1177V59.6471H164.694V50.1177H163.894Z" fill="#B8B8B8" mask="url(#path-159-outside-75)"/>
<mask id="path-161-outside-76" maskUnits="userSpaceOnUse" x="165.412" y="47" width="2" height="16" fill="black">
<rect fill="white" x="165.412" y="47" width="2" height="16"/>
<path d="M166.412 48V61.7647Z"/>
</mask>
<path d="M166.812 48C166.812 47.7791 166.633 47.6 166.412 47.6C166.191 47.6 166.012 47.7791 166.012 48H166.812ZM166.012 61.7647C166.012 61.9856 166.191 62.1647 166.412 62.1647C166.633 62.1647 166.812 61.9856 166.812 61.7647H166.012ZM166.012 48V61.7647H166.812V48H166.012Z" fill="#B8B8B8" mask="url(#path-161-outside-76)"/>
<mask id="path-163-outside-77" maskUnits="userSpaceOnUse" x="166.471" y="49.1177" width="2" height="11" fill="black">
<rect fill="white" x="166.471" y="49.1177" width="2" height="11"/>
<path d="M167.471 50.1177V59.6471Z"/>
</mask>
<path d="M167.871 50.1177C167.871 49.8968 167.691 49.7177 167.471 49.7177C167.25 49.7177 167.071 49.8968 167.071 50.1177H167.871ZM167.071 59.6471C167.071 59.868 167.25 60.0471 167.471 60.0471C167.691 60.0471 167.871 59.868 167.871 59.6471H167.071ZM167.071 50.1177V59.6471H167.871V50.1177H167.071Z" fill="#B8B8B8" mask="url(#path-163-outside-77)"/>
<mask id="path-165-outside-78" maskUnits="userSpaceOnUse" x="168.588" y="49.1177" width="2" height="11" fill="black">
<rect fill="white" x="168.588" y="49.1177" width="2" height="11"/>
<path d="M169.588 50.1177V59.6471Z"/>
</mask>
<path d="M169.988 50.1177C169.988 49.8968 169.809 49.7177 169.588 49.7177C169.367 49.7177 169.188 49.8968 169.188 50.1177H169.988ZM169.188 59.6471C169.188 59.868 169.367 60.0471 169.588 60.0471C169.809 60.0471 169.988 59.868 169.988 59.6471H169.188ZM169.188 50.1177V59.6471H169.988V50.1177H169.188Z" fill="#B8B8B8" mask="url(#path-165-outside-78)"/>
<mask id="path-167-outside-79" maskUnits="userSpaceOnUse" x="169.647" y="50.1765" width="2" height="9" fill="black">
<rect fill="white" x="169.647" y="50.1765" width="2" height="9"/>
<path d="M170.647 51.1765V58.5883Z"/>
</mask>
<path d="M171.047 51.1765C171.047 50.9556 170.868 50.7765 170.647 50.7765C170.426 50.7765 170.247 50.9556 170.247 51.1765H171.047ZM170.247 58.5883C170.247 58.8092 170.426 58.9883 170.647 58.9883C170.868 58.9883 171.047 58.8092 171.047 58.5883H170.247ZM170.247 51.1765V58.5883H171.047V51.1765H170.247Z" fill="#B8B8B8" mask="url(#path-167-outside-79)"/>
<mask id="path-169-outside-80" maskUnits="userSpaceOnUse" x="171.765" y="50.1765" width="2" height="9" fill="black">
<rect fill="white" x="171.765" y="50.1765" width="2" height="9"/>
<path d="M172.765 51.1765V58.5883Z"/>
</mask>
<path d="M173.165 51.1765C173.165 50.9556 172.986 50.7765 172.765 50.7765C172.544 50.7765 172.365 50.9556 172.365 51.1765H173.165ZM172.365 58.5883C172.365 58.8092 172.544 58.9883 172.765 58.9883C172.986 58.9883 173.165 58.8092 173.165 58.5883H172.365ZM172.365 51.1765V58.5883H173.165V51.1765H172.365Z" fill="#B8B8B8" mask="url(#path-169-outside-80)"/>
<mask id="path-171-outside-81" maskUnits="userSpaceOnUse" x="173.882" y="50.1765" width="2" height="9" fill="black">
<rect fill="white" x="173.882" y="50.1765" width="2" height="9"/>
<path d="M174.882 51.1765V58.5883Z"/>
</mask>
<path d="M175.282 51.1765C175.282 50.9556 175.103 50.7765 174.882 50.7765C174.661 50.7765 174.482 50.9556 174.482 51.1765H175.282ZM174.482 58.5883C174.482 58.8092 174.661 58.9883 174.882 58.9883C175.103 58.9883 175.282 58.8092 175.282 58.5883H174.482ZM174.482 51.1765V58.5883H175.282V51.1765H174.482Z" fill="#B8B8B8" mask="url(#path-171-outside-81)"/>
<mask id="path-173-outside-82" maskUnits="userSpaceOnUse" x="174.941" y="51.2354" width="2" height="7" fill="black">
<rect fill="white" x="174.941" y="51.2354" width="2" height="7"/>
<path d="M175.941 52.2354V57.5295Z"/>
</mask>
<path d="M176.341 52.2354C176.341 52.0144 176.162 51.8354 175.941 51.8354C175.72 51.8354 175.541 52.0144 175.541 52.2354H176.341ZM175.541 57.5295C175.541 57.7504 175.72 57.9295 175.941 57.9295C176.162 57.9295 176.341 57.7504 176.341 57.5295H175.541ZM175.541 52.2354V57.5295H176.341V52.2354H175.541Z" fill="#B8B8B8" mask="url(#path-173-outside-82)"/>
<mask id="path-175-outside-83" maskUnits="userSpaceOnUse" x="177.059" y="51.2354" width="2" height="7" fill="black">
<rect fill="white" x="177.059" y="51.2354" width="2" height="7"/>
<path d="M178.059 52.2354V57.5295Z"/>
</mask>
<path d="M178.459 52.2354C178.459 52.0144 178.28 51.8354 178.059 51.8354C177.838 51.8354 177.659 52.0144 177.659 52.2354H178.459ZM177.659 57.5295C177.659 57.7504 177.838 57.9295 178.059 57.9295C178.28 57.9295 178.459 57.7504 178.459 57.5295H177.659ZM177.659 52.2354V57.5295H178.459V52.2354H177.659Z" fill="#B8B8B8" mask="url(#path-175-outside-83)"/>
<mask id="path-177-outside-84" maskUnits="userSpaceOnUse" x="178.118" y="50.1765" width="2" height="9" fill="black">
<rect fill="white" x="178.118" y="50.1765" width="2" height="9"/>
<path d="M179.118 51.1765V58.5883Z"/>
</mask>
<path d="M179.518 51.1765C179.518 50.9556 179.339 50.7765 179.118 50.7765C178.897 50.7765 178.718 50.9556 178.718 51.1765H179.518ZM178.718 58.5883C178.718 58.8092 178.897 58.9883 179.118 58.9883C179.339 58.9883 179.518 58.8092 179.518 58.5883H178.718ZM178.718 51.1765V58.5883H179.518V51.1765H178.718Z" fill="#B8B8B8" mask="url(#path-177-outside-84)"/>
<mask id="path-179-outside-85" maskUnits="userSpaceOnUse" x="180.235" y="48.0588" width="2" height="14" fill="black">
<rect fill="white" x="180.235" y="48.0588" width="2" height="14"/>
<path d="M181.235 49.0588V60.7059Z"/>
</mask>
<path d="M181.635 49.0588C181.635 48.8379 181.456 48.6588 181.235 48.6588C181.014 48.6588 180.835 48.8379 180.835 49.0588H181.635ZM180.835 60.7059C180.835 60.9268 181.014 61.1059 181.235 61.1059C181.456 61.1059 181.635 60.9268 181.635 60.7059H180.835ZM180.835 49.0588V60.7059H181.635V49.0588H180.835Z" fill="#B8B8B8" mask="url(#path-179-outside-85)"/>
<mask id="path-181-outside-86" maskUnits="userSpaceOnUse" x="182.353" y="49.1177" width="2" height="11" fill="black">
<rect fill="white" x="182.353" y="49.1177" width="2" height="11"/>
<path d="M183.353 50.1177V59.6471Z"/>
</mask>
<path d="M183.753 50.1177C183.753 49.8968 183.574 49.7177 183.353 49.7177C183.132 49.7177 182.953 49.8968 182.953 50.1177H183.753ZM182.953 59.6471C182.953 59.868 183.132 60.0471 183.353 60.0471C183.574 60.0471 183.753 59.868 183.753 59.6471H182.953ZM182.953 50.1177V59.6471H183.753V50.1177H182.953Z" fill="#B8B8B8" mask="url(#path-181-outside-86)"/>
<mask id="path-183-outside-87" maskUnits="userSpaceOnUse" x="183.412" y="51.2354" width="2" height="7" fill="black">
<rect fill="white" x="183.412" y="51.2354" width="2" height="7"/>
<path d="M184.412 52.2354V57.5295Z"/>
</mask>
<path d="M184.812 52.2354C184.812 52.0144 184.633 51.8354 184.412 51.8354C184.191 51.8354 184.012 52.0144 184.012 52.2354H184.812ZM184.012 57.5295C184.012 57.7504 184.191 57.9295 184.412 57.9295C184.633 57.9295 184.812 57.7504 184.812 57.5295H184.012ZM184.012 52.2354V57.5295H184.812V52.2354H184.012Z" fill="#B8B8B8" mask="url(#path-183-outside-87)"/>
<mask id="path-185-outside-88" maskUnits="userSpaceOnUse" x="185.529" y="51.2354" width="2" height="7" fill="black">
<rect fill="white" x="185.529" y="51.2354" width="2" height="7"/>
<path d="M186.529 52.2354V57.5295Z"/>
</mask>
<path d="M186.929 52.2354C186.929 52.0144 186.75 51.8354 186.529 51.8354C186.309 51.8354 186.129 52.0144 186.129 52.2354H186.929ZM186.129 57.5295C186.129 57.7504 186.309 57.9295 186.529 57.9295C186.75 57.9295 186.929 57.7504 186.929 57.5295H186.129ZM186.129 52.2354V57.5295H186.929V52.2354H186.129Z" fill="#B8B8B8" mask="url(#path-185-outside-88)"/>
<mask id="path-187-outside-89" maskUnits="userSpaceOnUse" x="187.647" y="49.1177" width="2" height="11" fill="black">
<rect fill="white" x="187.647" y="49.1177" width="2" height="11"/>
<path d="M188.647 50.1177V59.6471Z"/>
</mask>
<path d="M189.047 50.1177C189.047 49.8968 188.868 49.7177 188.647 49.7177C188.426 49.7177 188.247 49.8968 188.247 50.1177H189.047ZM188.247 59.6471C188.247 59.868 188.426 60.0471 188.647 60.0471C188.868 60.0471 189.047 59.868 189.047 59.6471H188.247ZM188.247 50.1177V59.6471H189.047V50.1177H188.247Z" fill="#B8B8B8" mask="url(#path-187-outside-89)"/>
<mask id="path-189-outside-90" maskUnits="userSpaceOnUse" x="188.706" y="50.1765" width="2" height="9" fill="black">
<rect fill="white" x="188.706" y="50.1765" width="2" height="9"/>
<path d="M189.706 51.1765V58.5883Z"/>
</mask>
<path d="M190.106 51.1765C190.106 50.9556 189.927 50.7765 189.706 50.7765C189.485 50.7765 189.306 50.9556 189.306 51.1765H190.106ZM189.306 58.5883C189.306 58.8092 189.485 58.9883 189.706 58.9883C189.927 58.9883 190.106 58.8092 190.106 58.5883H189.306ZM189.306 51.1765V58.5883H190.106V51.1765H189.306Z" fill="#B8B8B8" mask="url(#path-189-outside-90)"/>
<mask id="path-191-outside-91" maskUnits="userSpaceOnUse" x="190.823" y="50.1765" width="2" height="9" fill="black">
<rect fill="white" x="190.823" y="50.1765" width="2" height="9"/>
<path d="M191.823 51.1765V58.5883Z"/>
</mask>
<path d="M192.223 51.1765C192.223 50.9556 192.044 50.7765 191.823 50.7765C191.603 50.7765 191.423 50.9556 191.423 51.1765H192.223ZM191.423 58.5883C191.423 58.8092 191.603 58.9883 191.823 58.9883C192.044 58.9883 192.223 58.8092 192.223 58.5883H191.423ZM191.423 51.1765V58.5883H192.223V51.1765H191.423Z" fill="#B8B8B8" mask="url(#path-191-outside-91)"/>
<mask id="path-193-outside-92" maskUnits="userSpaceOnUse" x="191.882" y="51.2354" width="2" height="7" fill="black">
<rect fill="white" x="191.882" y="51.2354" width="2" height="7"/>
<path d="M192.882 52.2354V57.5295Z"/>
</mask>
<path d="M193.282 52.2354C193.282 52.0144 193.103 51.8354 192.882 51.8354C192.661 51.8354 192.482 52.0144 192.482 52.2354H193.282ZM192.482 57.5295C192.482 57.7504 192.661 57.9295 192.882 57.9295C193.103 57.9295 193.282 57.7504 193.282 57.5295H192.482ZM192.482 52.2354V57.5295H193.282V52.2354H192.482Z" fill="#B8B8B8" mask="url(#path-193-outside-92)"/>
<mask id="path-195-outside-93" maskUnits="userSpaceOnUse" x="194" y="49.1177" width="2" height="11" fill="black">
<rect fill="white" x="194" y="49.1177" width="2" height="11"/>
<path d="M195 50.1177V59.6471Z"/>
</mask>
<path d="M195.4 50.1177C195.4 49.8968 195.221 49.7177 195 49.7177C194.779 49.7177 194.6 49.8968 194.6 50.1177H195.4ZM194.6 59.6471C194.6 59.868 194.779 60.0471 195 60.0471C195.221 60.0471 195.4 59.868 195.4 59.6471H194.6ZM194.6 50.1177V59.6471H195.4V50.1177H194.6Z" fill="#B8B8B8" mask="url(#path-195-outside-93)"/>
<path d="M31 22C31 17.5817 27.4183 14 23 14C18.5817 14 15 17.5817 15 22C15 26.4183 18.5817 30 23 30C27.4183 30 31 26.4183 31 22ZM28.6627 26.0603C27.3982 27.8208 25.3331 28.9677 23 28.9677C20.6669 28.9677 18.6018 27.8208 17.3373 26.0603C17.4386 25.1896 18.0685 24.4587 18.9353 24.242L19.9796 23.9809C20.8205 24.7029 21.8799 25.0968 23 25.0968C24.1201 25.0968 25.1795 24.7029 26.0205 23.9809L27.0648 24.242C27.9315 24.4587 28.5614 25.1896 28.6627 26.0603V26.0603ZM26.6129 20.4516C26.6129 22.447 24.9954 24.0645 23 24.0645C21.0046 24.0645 19.3871 22.447 19.3871 20.4516C19.3871 18.4563 21.0046 16.8387 23 16.8387C24.9954 16.8387 26.6129 18.4563 26.6129 20.4516Z" fill="#D6D6D6"/>
</g>
<defs>
<filter id="filter0_d" x="0.713068" y="0.684659" width="218.574" height="90.5739" filterUnits="userSpaceOnUse" color-interpolation-filters="sRGB">
<feFlood flood-opacity="0" result="BackgroundImageFix"/>
<feColorMatrix in="SourceAlpha" type="matrix" values="0 0 0 0 0 0 0 0 0 0 0 0 0 0 0 0 0 0 127 0"/>
<feOffset dy="0.971591"/>
<feGaussianBlur stdDeviation="3.64347"/>
<feColorMatrix type="matrix" values="0 0 0 0 0 0 0 0 0 0 0 0 0 0 0 0 0 0 0.2 0"/>
<feBlend mode="normal" in2="BackgroundImageFix" result="effect1_dropShadow"/>
<feBlend mode="normal" in="SourceGraphic" in2="effect1_dropShadow" result="shape"/>
</filter>
</defs>
</svg>
