<svg width="16" height="17" viewBox="0 0 16 17" fill="none" xmlns="http://www.w3.org/2000/svg">
<path d="M10.8433 3.13596C9.14216 3.13596 7.73718 2.03173 5.59835 2.03173C4.80613 2.03173 4.09648 2.17091 3.43819 2.4131C3.52942 2.17484 3.56825 1.91972 3.55203 1.6651C3.49578 0.76237 2.75575 0.0382745 1.852 0.00151263C0.836349 -0.0398207 0 0.77129 0 1.77777C0 2.38177 0.301492 2.91507 0.761905 3.23634V15.4921C0.761905 15.9128 1.10302 16.254 1.52381 16.254H2.03175C2.45254 16.254 2.79365 15.9128 2.79365 15.4921V12.4952C3.69241 12.1122 4.81213 11.7929 6.42651 11.7929C8.12772 11.7929 9.53267 12.8972 11.6715 12.8972C13.2007 12.8972 14.4228 12.3799 15.5605 11.6001C15.8362 11.4112 16 11.0975 16 10.7633V3.04586C16 2.30323 15.2296 1.81189 14.556 2.12472C13.4659 2.631 12.1289 3.13596 10.8433 3.13596Z" fill="#8698A3"/>
</svg>
