<svg width="6" height="7" viewBox="0 0 6 7" fill="none" xmlns="http://www.w3.org/2000/svg">
<path d="M5.35714 3.06247H5.03571V2.07809C5.03571 0.932391 4.12232 -3.05176e-05 3 -3.05176e-05C1.87768 -3.05176e-05 0.964286 0.932391 0.964286 2.07809V3.06247H0.642857C0.287946 3.06247 0 3.35641 0 3.71872V6.34372C0 6.70602 0.287946 6.99997 0.642857 6.99997H5.35714C5.71205 6.99997 6 6.70602 6 6.34372V3.71872C6 3.35641 5.71205 3.06247 5.35714 3.06247ZM3.96429 3.06247H2.03571V2.07809C2.03571 1.53532 2.4683 1.09372 3 1.09372C3.5317 1.09372 3.96429 1.53532 3.96429 2.07809V3.06247Z" fill="#B7B7B7"/>
</svg>
