<svg width="12" height="13" viewBox="0 0 12 13" fill="none" xmlns="http://www.w3.org/2000/svg">
<path d="M10.9495 3.25018C10.3488 3.23929 9.85717 3.71618 9.85717 4.28569V6.5H9.64288V2.02592C9.64288 1.45641 9.1512 0.979524 8.55053 0.990417C7.96845 1.00098 7.50002 1.45156 7.50002 2.00586V6.5H7.28573V1.03569C7.28573 0.466177 6.79405 -0.0107096 6.19338 0.000182985C5.6113 0.0107455 5.14287 0.461327 5.14287 1.01563V6.5H4.92858V2.05131C4.92858 1.4818 4.4369 1.00491 3.83623 1.01581C3.25415 1.02637 2.78572 1.47695 2.78572 2.03125V8.02324L1.938 6.91826C1.58998 6.46463 0.919905 6.36432 0.441297 6.69424C-0.0372313 7.02417 -0.143035 7.65934 0.204992 8.11299L3.56931 12.4981C3.68859 12.6535 3.84497 12.7801 4.02568 12.8673C4.2064 12.9545 4.40631 13 4.60911 13H9.90171C10.4983 13 11.0166 12.6109 11.1532 12.0604L11.8633 9.19989C11.9541 8.83395 12 8.45927 12 8.08334V4.26563C12 3.71133 11.5316 3.26074 10.9495 3.25018Z" fill="white"/>
</svg>
