<svg xmlns="http://www.w3.org/2000/svg" xmlns:xlink="http://www.w3.org/1999/xlink" width="25" height="25" viewBox="0 0 50 50" version="1.1">
<g id="surface9230622">
<path style=" stroke:none;fill-rule:nonzero;fill:rgb(80%,80%,80%);fill-opacity:1;" d="M 9 4 C 6.25 4 4 6.25 4 9 L 4 41 C 4 43.75 6.25 46 9 46 L 41 46 C 43.75 46 46 43.75 46 41 L 46 9 C 46 6.25 43.75 4 41 4 Z M 9 6 L 41 6 C 42.667969 6 44 7.332031 44 9 L 44 41 C 44 42.667969 42.667969 44 41 44 L 9 44 C 7.332031 44 6 42.667969 6 41 L 6 9 C 6 7.332031 7.332031 6 9 6 Z M 15 8 C 15.414062 9.011719 17.402344 13.382812 18 14.996094 L 18 19 L 20 19 L 20 15 L 23 8 L 20.597656 8 L 19 12 L 17.402344 8 Z M 25 11 C 23.992188 11 23.230469 11.273438 22.667969 11.945312 C 22.234375 12.441406 22 13.234375 22 14.28125 L 22 15.726562 C 22 16.765625 22.207031 17.488281 22.636719 17.976562 C 23.199219 18.644531 24.109375 19 25 19 C 25.890625 19 26.816406 18.644531 27.378906 17.976562 C 27.804688 17.488281 28 16.765625 28 15.726562 L 28 14.273438 C 28 13.226562 27.757812 12.441406 27.332031 11.945312 C 26.769531 11.273438 25.890625 11 25 11 Z M 29 11 L 29 16.839844 C 29 17.496094 29.097656 17.945312 29.238281 18.234375 C 29.46875 18.707031 29.929688 18.949219 30.589844 18.972656 C 31.5 19 32.183594 18.410156 33 17.625 L 33 19 L 35 19 L 35 11 L 33 11 L 33 16.375 C 32.546875 16.914062 32.019531 17.394531 31.609375 17.394531 C 31.335938 17.394531 31.050781 17.265625 31 17 L 31 11 Z M 25 12.621094 C 25.550781 12.621094 26 13.078125 26 13.640625 L 26 16.449219 C 26 17.011719 25.550781 17.46875 25 17.46875 C 24.449219 17.46875 24 17.011719 24 16.449219 L 24 13.640625 C 24 13.078125 24.449219 12.621094 25 12.621094 Z M 24.988281 22 C 24.988281 22 18.28125 22 13.800781 22.320312 C 13.171875 22.390625 11.808594 22.398438 10.589844 23.648438 C 9.628906 24.589844 9.320312 26.75 9.320312 26.75 C 9.320312 26.75 9 28.28125 9 30.808594 L 9 33.179688 C 9 35.710938 9.320312 37.238281 9.320312 37.238281 C 9.320312 37.238281 9.628906 39.398438 10.589844 40.347656 C 11.808594 41.589844 13.410156 41.550781 14.117188 41.679688 C 16.679688 41.917969 25 42 25 42 C 25 42 31.71875 41.988281 36.199219 41.667969 C 36.828125 41.601562 38.191406 41.589844 39.410156 40.339844 C 40.371094 39.398438 40.679688 37.238281 40.679688 37.238281 C 40.679688 37.238281 41 35.710938 41 33.179688 L 41 30.808594 C 41 28.28125 40.679688 26.75 40.679688 26.75 C 40.679688 26.75 40.371094 24.589844 39.410156 23.648438 C 38.191406 22.398438 36.828125 22.390625 36.199219 22.320312 C 31.71875 22 25.007812 22 25.007812 22 Z M 12 26 L 18 26 L 18 28 L 16 28 L 16 38 L 14 38 L 14 28 L 12 28 Z M 25 26 L 27 26 L 27 30.378906 C 27.75 29.5 28.148438 28.988281 29.121094 29 C 29.878906 29.011719 30.492188 29.441406 30.742188 30.222656 C 30.871094 30.640625 31 31.390625 31 32.382812 L 31 35.132812 C 30.988281 36.011719 30.898438 36.398438 30.78125 36.820312 C 30.53125 37.601562 29.878906 38 29.121094 38 C 28.449219 38 27.628906 37.53125 27 36.75 L 27 38 L 25 38 Z M 18 29 L 20 29 L 20 35.890625 C 20.050781 36.179688 20.257812 36.289062 20.519531 36.289062 C 20.917969 36.289062 21.558594 35.847656 22 35.269531 L 22 29 L 24 29 L 24 38 L 22 38 L 22 36.628906 C 21.210938 37.492188 20.269531 38 19.539062 38 C 18.898438 38 18.449219 37.722656 18.230469 37.210938 C 18.101562 36.890625 18 36.410156 18 35.6875 Z M 35.027344 29 C 36.019531 29 36.808594 29.320312 37.359375 29.917969 C 37.769531 30.359375 38 31.039062 38 31.980469 L 38 34 L 34 34 L 34 35.800781 C 34 36.261719 34.449219 36.640625 35 36.640625 C 35.550781 36.640625 36 36.261719 36 35.800781 L 36 35 L 38 35 C 38 35.511719 37.941406 35.941406 37.929688 36.097656 C 37.859375 36.449219 37.699219 36.769531 37.460938 37.050781 C 36.921875 37.691406 36.109375 38 35.082031 38 C 34.039062 38 33.257812 37.699219 32.691406 37.097656 C 32.269531 36.667969 32 36.011719 32 35.078125 L 32 32.019531 C 32 31.078125 32.238281 30.359375 32.667969 29.917969 C 33.238281 29.320312 34.019531 29 35.027344 29 Z M 35 30.449219 C 34.449219 30.449219 34 30.820312 34 31.289062 L 34 32.609375 L 36 32.609375 L 36 31.289062 C 36 30.820312 35.550781 30.449219 35 30.449219 Z M 28.222656 30.75 C 28.066406 30.75 27.839844 30.828125 27.613281 30.945312 C 27.5 31.003906 27.386719 31.074219 27.28125 31.144531 C 27.175781 31.21875 27.078125 31.300781 27 31.378906 L 27 35.75 C 27.078125 35.828125 27.175781 35.902344 27.28125 35.96875 C 27.597656 36.164062 27.988281 36.277344 28.222656 36.277344 C 28.421875 36.277344 28.582031 36.230469 28.703125 36.113281 C 28.742188 36.070312 28.78125 36.023438 28.8125 35.96875 C 28.875 35.859375 28.921875 35.714844 28.953125 35.535156 C 28.984375 35.351562 29 35.132812 29 34.871094 L 29 32.132812 C 29 31.867188 28.984375 31.648438 28.953125 31.472656 C 28.890625 31.113281 28.765625 30.914062 28.570312 30.820312 C 28.472656 30.769531 28.355469 30.75 28.222656 30.75 Z M 28.222656 30.75 "/>
</g>
</svg>
