<svg width="22" height="20" viewBox="0 0 22 20" fill="none" xmlns="http://www.w3.org/2000/svg">
<path fill-rule="evenodd" clip-rule="evenodd" d="M0.862549 10.0001V9.37518H0.882194C1.21205 4.14393 5.65458 -0.00012207 11.0871 -0.00012207C16.5192 -0.00012207 20.962 4.14393 21.2919 9.37518H21.3115V10.0001V10.6253H21.2919C20.9619 15.8568 16.5191 20 11.0871 20C5.65465 20 1.21215 15.8568 0.882205 10.6253H0.862549V10.0001ZM2.16311 10.6253C2.24336 11.7372 2.53602 12.7917 3.00165 13.7504H7.53155C7.38026 12.7756 7.28618 11.7245 7.26018 10.6253H2.16311ZM9.08519 18.5306C6.88519 18.0387 4.99416 16.7535 3.74345 14.9992H7.76555C8.0858 16.4434 8.54057 17.6594 9.08519 18.5306ZM11.0871 18.7505C10.2181 18.7505 9.45061 17.2668 8.98876 14.9992H13.1852C12.7233 17.2668 11.9558 18.7505 11.0871 18.7505ZM13.0887 18.5306C13.6334 17.6595 14.0882 16.4435 14.4085 14.9992H18.4306C17.1799 16.7536 15.2888 18.0388 13.0887 18.5306ZM14.6425 13.7504H19.1724C19.6381 12.7917 19.9307 11.7372 20.011 10.6253H14.9139C14.8879 11.7245 14.7938 12.7756 14.6425 13.7504ZM8.77685 13.7504H13.3972C13.5302 12.7917 13.6138 11.7372 13.6368 10.6253H8.53731C8.56023 11.7372 8.64383 12.7917 8.77685 13.7504ZM13.6368 9.37518H8.5373C8.56022 8.26328 8.64381 7.20874 8.77681 6.25015H13.3972C13.5302 7.20874 13.6139 8.26328 13.6368 9.37518ZM13.1851 5.00024H8.98893C9.45079 2.73322 10.2182 1.25002 11.0871 1.25002C11.9557 1.25002 12.7231 2.73322 13.1851 5.00024ZM14.4083 5.00024C14.088 3.55658 13.6334 2.34099 13.089 1.46994C15.2886 1.96172 17.1793 3.24643 18.43 5.00024H14.4083ZM14.6425 6.25015H19.1726C19.6381 7.20874 19.9308 8.26328 20.011 9.37518H14.9139C14.8879 8.27606 14.7938 7.22493 14.6425 6.25015ZM7.76576 5.00024C8.08594 3.5566 8.54051 2.34103 9.08488 1.46998C6.88537 1.96179 4.99471 3.24648 3.74404 5.00024H7.76576ZM7.53153 6.25015H3.00151C2.53593 7.20874 2.24331 8.26328 2.16309 9.37518H7.26018C7.28617 8.27606 7.38024 7.22493 7.53153 6.25015Z" fill="black"/>
</svg>
