<svg width="104" height="31" viewBox="0 0 104 31" fill="none" xmlns="http://www.w3.org/2000/svg">
<mask id="mask0" mask-type="alpha" maskUnits="userSpaceOnUse" x="0" y="0" width="104" height="32">
<path d="M0.00158691 0.00602722H103.979V31.001H0.00158691V0.00602722Z" fill="white"/>
</mask>
<g mask="url(#mask0)">
<path fill-rule="evenodd" clip-rule="evenodd" d="M25.6246 22.9839C25.6246 21.9335 24.7822 21.0775 23.7409 21.0775C22.6983 21.0775 21.8528 21.9335 21.8528 22.9839C21.8528 24.0415 22.6983 24.8973 23.7409 24.8973C24.7822 24.8973 25.6246 24.0415 25.6246 22.9839Z" fill="white"/>
<path fill-rule="evenodd" clip-rule="evenodd" d="M1.15562 19.119C1.00812 18.7262 0.742486 18.5779 0.325315 18.5779H0V15.3379H2.16377C3.40837 15.3379 4.00025 15.7316 4.38618 16.78L7.22976 24.8207C7.55705 25.7155 7.79339 27.0093 7.79339 27.0093H7.85101C7.85101 27.0093 8.08842 25.7155 8.3884 24.8207L11.231 16.78C11.6158 15.7316 12.2381 15.3379 13.4523 15.3379H15.4666V18.5779H15.113C14.6959 18.5779 14.4332 18.7262 14.2817 19.119L9.95521 30.638H5.48212L1.15562 19.119Z" fill="#FFFFFE"/>
<path fill-rule="evenodd" clip-rule="evenodd" d="M23.7327 27.7611C26.1956 27.7611 28.2381 25.8383 28.2381 22.991C28.2381 20.1682 26.1956 18.2168 23.7327 18.2168C21.3033 18.2168 19.2608 20.1682 19.2608 22.991C19.2608 25.8383 21.3033 27.7611 23.7327 27.7611ZM23.7327 14.9809C28.3572 14.9809 32.0342 18.3078 32.0342 22.991C32.0342 27.6996 28.3572 31 23.7327 31C19.1415 31 15.4666 27.6996 15.4666 22.991C15.4666 18.3078 19.1415 14.9809 23.7327 14.9809Z" fill="#FFFFFE"/>
<path fill-rule="evenodd" clip-rule="evenodd" d="M63.9442 13.2402C63.9442 12.7881 63.7067 12.5785 63.2906 12.5785H62.1057V9.33851H65.6896C67.0848 9.33851 67.7019 9.96646 67.7019 11.3799V26.77C67.7019 27.1874 67.9424 27.4297 68.3564 27.4297H69.5122V30.638H65.9563C64.5351 30.638 63.9442 30.0408 63.9442 28.5955V13.2402Z" fill="#FFFFFE"/>
<path fill-rule="evenodd" clip-rule="evenodd" d="M71.7657 12.8506H75.0244V9.33851H71.7657V12.8506ZM71.587 19.2417C71.587 18.7896 71.3487 18.5779 70.9364 18.5779H69.7527V15.3378H73.3365C74.7287 15.3378 75.3196 15.9668 75.3196 17.3802V26.77C75.3196 27.1874 75.557 27.4297 75.9762 27.4297H77.1571V30.638H73.572C72.1759 30.638 71.587 30.0408 71.587 28.5955V19.2417Z" fill="#FFFFFE"/>
<path fill-rule="evenodd" clip-rule="evenodd" d="M78.6711 28.5955L85.6322 19.9882C86.315 19.119 86.909 18.5779 86.909 18.5779V18.5226C86.909 18.5226 86.4616 18.5779 85.514 18.5779H82.7876C82.3734 18.5779 82.1359 18.8162 82.1359 19.2417V20.11H78.7308V17.3803C78.7308 15.9669 79.3208 15.3379 80.7451 15.3379H91.8286V17.4079L84.8645 26.0183C84.1806 26.8578 83.5886 27.4297 83.5886 27.4297V27.4899C83.5886 27.4899 84.0351 27.3979 85.01 27.3979H88.3313C88.7485 27.3979 88.9818 27.1874 88.9818 26.7384V25.8997H92.3902V28.5955C92.3902 30.0408 91.7963 30.638 90.4082 30.638H78.6711V28.5955Z" fill="#FFFFFE"/>
<path fill-rule="evenodd" clip-rule="evenodd" d="M94.8803 19.2417C94.8803 18.7896 94.6408 18.5779 94.2297 18.5779H93.0438V15.3378H96.4793C97.8149 15.3378 98.4966 15.9095 98.4966 17.2002V18.0983C98.4966 18.6709 98.4381 19.0576 98.4381 19.0576H98.4966C99.1784 16.8637 100.981 15.1292 103.297 15.1292C103.624 15.1292 103.979 15.1916 103.979 15.1916V18.9389C103.979 18.9389 103.592 18.8795 103.063 18.8795C101.459 18.8795 99.624 19.8113 98.939 22.0888C98.7349 22.8375 98.6168 23.6772 98.6168 24.5802V30.6379H94.8803V19.2417Z" fill="#FFFFFE"/>
<path fill-rule="evenodd" clip-rule="evenodd" d="M45.8693 25.6062L45.8633 25.5979C45.8633 25.5979 43.9641 27.6688 41.3851 27.6688C38.961 27.6688 36.6758 26.0776 36.6758 22.9593C36.6758 20.2019 38.5438 18.1862 41.1518 18.1862C42.0712 18.1862 43.3138 18.5503 43.3138 19.3889V20.2296H46.6361V18.4255C46.6361 15.7909 43.1067 14.9809 41.1518 14.9809C35.9648 14.9809 32.8828 18.6709 32.8828 22.991C32.8828 27.4298 36.0819 31 41.062 31C43.6601 31 45.5137 29.9005 46.529 29.0957C46.0875 28.2919 45.8229 27.3364 45.8229 26.2321C45.8229 26.0152 45.8492 25.8117 45.8693 25.6062Z" fill="#FFFFFE"/>
<path fill-rule="evenodd" clip-rule="evenodd" d="M53.3304 28.0289C55.3488 28.0289 56.7711 25.8659 56.7711 24.0097V23.6487H56.1164C54.1628 23.6487 51.0485 23.9155 51.0485 26.046C51.0485 27.0666 51.7888 28.0289 53.3304 28.0289ZM56.2366 21.0427H56.7112V20.921C56.7112 18.7262 55.8508 17.9183 53.9254 17.9183C53.2445 17.9183 51.9081 18.0983 51.9081 18.9389V19.7459H48.4118V18.1279C48.4118 15.2806 52.3808 14.9809 53.9516 14.9809C58.9903 14.9809 60.4742 17.6503 60.4742 21.0713V26.77C60.4742 27.1874 60.7097 27.4298 61.1247 27.4298H62.3128V30.638H58.9307C57.5387 30.638 57.0064 29.8597 57.0064 28.9596C57.0064 28.569 57.0326 28.2978 57.0326 28.2978H56.979C56.979 28.2978 55.8215 31 52.415 31C49.7181 31 47.2563 29.293 47.2563 26.2321C47.2563 21.4303 53.7758 21.0427 56.2366 21.0427Z" fill="#FFFFFE"/>
<path fill-rule="evenodd" clip-rule="evenodd" d="M1.15562 19.119C1.00812 18.7262 0.742486 18.5779 0.325315 18.5779H0V15.3379H2.16377C3.40837 15.3379 4.00025 15.7316 4.38618 16.78L7.22976 24.8207C7.55705 25.7155 7.79339 27.0093 7.79339 27.0093H7.85101C7.85101 27.0093 8.08842 25.7155 8.3884 24.8207L11.231 16.78C11.6158 15.7316 12.2381 15.3379 13.4523 15.3379H15.4666V18.5779H15.113C14.6959 18.5779 14.4332 18.7262 14.2817 19.119L9.95521 30.638H5.48212L1.15562 19.119Z" fill="#FFFFFE"/>
<path fill-rule="evenodd" clip-rule="evenodd" d="M23.7327 27.7611C26.1956 27.7611 28.2381 25.8383 28.2381 22.991C28.2381 20.1682 26.1956 18.2168 23.7327 18.2168C21.3033 18.2168 19.2608 20.1682 19.2608 22.991C19.2608 25.8383 21.3033 27.7611 23.7327 27.7611ZM23.7327 14.9809C28.3572 14.9809 32.0342 18.3078 32.0342 22.991C32.0342 27.6996 28.3572 31 23.7327 31C19.1415 31 15.4666 27.6996 15.4666 22.991C15.4666 18.3078 19.1415 14.9809 23.7327 14.9809Z" fill="#FFFFFE"/>
<path fill-rule="evenodd" clip-rule="evenodd" d="M63.9442 13.2402C63.9442 12.7881 63.7067 12.5785 63.2906 12.5785H62.1057V9.33851H65.6896C67.0848 9.33851 67.7019 9.96646 67.7019 11.3799V26.77C67.7019 27.1874 67.9424 27.4297 68.3564 27.4297H69.5122V30.638H65.9563C64.5351 30.638 63.9442 30.0408 63.9442 28.5955V13.2402Z" fill="#FFFFFE"/>
<path fill-rule="evenodd" clip-rule="evenodd" d="M71.7657 12.8506H75.0244V9.33851H71.7657V12.8506ZM71.587 19.2417C71.587 18.7896 71.3487 18.5779 70.9364 18.5779H69.7527V15.3378H73.3365C74.7287 15.3378 75.3196 15.9668 75.3196 17.3802V26.77C75.3196 27.1874 75.557 27.4297 75.9762 27.4297H77.1571V30.638H73.572C72.1759 30.638 71.587 30.0408 71.587 28.5955V19.2417Z" fill="#FFFFFE"/>
<path fill-rule="evenodd" clip-rule="evenodd" d="M78.6711 28.5955L85.6322 19.9882C86.315 19.119 86.909 18.5779 86.909 18.5779V18.5226C86.909 18.5226 86.4616 18.5779 85.514 18.5779H82.7876C82.3734 18.5779 82.1359 18.8162 82.1359 19.2417V20.11H78.7308V17.3803C78.7308 15.9669 79.3208 15.3379 80.7451 15.3379H91.8286V17.4079L84.8645 26.0183C84.1806 26.8578 83.5886 27.4297 83.5886 27.4297V27.4899C83.5886 27.4899 84.0351 27.3979 85.01 27.3979H88.3313C88.7485 27.3979 88.9818 27.1874 88.9818 26.7384V25.8997H92.3902V28.5955C92.3902 30.0408 91.7963 30.638 90.4082 30.638H78.6711V28.5955Z" fill="#FFFFFE"/>
<path fill-rule="evenodd" clip-rule="evenodd" d="M94.8803 19.2417C94.8803 18.7896 94.6408 18.5779 94.2297 18.5779H93.0438V15.3378H96.4793C97.8149 15.3378 98.4966 15.9095 98.4966 17.2002V18.0983C98.4966 18.6709 98.4381 19.0576 98.4381 19.0576H98.4966C99.1784 16.8637 100.981 15.1292 103.297 15.1292C103.624 15.1292 103.979 15.1916 103.979 15.1916V18.9389C103.979 18.9389 103.592 18.8795 103.063 18.8795C101.459 18.8795 99.624 19.8113 98.939 22.0888C98.7349 22.8375 98.6168 23.6772 98.6168 24.5802V30.6379H94.8803V19.2417Z" fill="#FFFFFE"/>
<path fill-rule="evenodd" clip-rule="evenodd" d="M45.8693 25.6062L45.8633 25.5979C45.8633 25.5979 43.9641 27.6688 41.3851 27.6688C38.961 27.6688 36.6758 26.0776 36.6758 22.9593C36.6758 20.2019 38.5438 18.1862 41.1518 18.1862C42.0712 18.1862 43.3138 18.5503 43.3138 19.3889V20.2296H46.6361V18.4255C46.6361 15.7909 43.1067 14.9809 41.1518 14.9809C35.9648 14.9809 32.8828 18.6709 32.8828 22.991C32.8828 27.4298 36.0819 31 41.062 31C43.6601 31 45.5137 29.9005 46.529 29.0957C46.0875 28.2919 45.8229 27.3364 45.8229 26.2321C45.8229 26.0152 45.8492 25.8117 45.8693 25.6062Z" fill="#FFFFFE"/>
<path fill-rule="evenodd" clip-rule="evenodd" d="M53.3304 28.0289C55.3488 28.0289 56.7711 25.8659 56.7711 24.0097V23.6487H56.1164C54.1628 23.6487 51.0485 23.9155 51.0485 26.046C51.0485 27.0666 51.7888 28.0289 53.3304 28.0289ZM56.2366 21.0427H56.7112V20.921C56.7112 18.7262 55.8508 17.9183 53.9254 17.9183C53.2445 17.9183 51.9081 18.0983 51.9081 18.9389V19.7459H48.4118V18.1279C48.4118 15.2806 52.3808 14.9809 53.9516 14.9809C58.9903 14.9809 60.4742 17.6503 60.4742 21.0713V26.77C60.4742 27.1874 60.7097 27.4298 61.1247 27.4298H62.3128V30.638H58.9307C57.5387 30.638 57.0064 29.8597 57.0064 28.9596C57.0064 28.569 57.0326 28.2978 57.0326 28.2978H56.979C56.979 28.2978 55.8215 31 52.415 31C49.7181 31 47.2563 29.293 47.2563 26.2321C47.2563 21.4303 53.7758 21.0427 56.2366 21.0427Z" fill="#FFFFFE"/>
<path fill-rule="evenodd" clip-rule="evenodd" d="M24.0662 2.57624C28.4422 2.57624 32.5696 4.08882 36.2103 6.75917L37.872 4.92339C33.7707 1.78762 29.0654 0.00505829 24.0662 0.00505829C19.0668 0.00505829 14.3615 1.78762 10.2582 4.92339L11.923 6.75917C15.5656 4.08882 19.6931 2.57624 24.0662 2.57624Z" fill="white"/>
<path fill-rule="evenodd" clip-rule="evenodd" d="M24.0662 7.29203C27.2955 7.29203 30.3643 8.32087 33.1352 10.1506L34.8181 8.29124C31.5676 6.0065 27.9189 4.72086 24.0662 4.72086C20.2134 4.72086 16.5656 6.0065 13.3139 8.29124L14.9958 10.1506C17.7698 8.32087 20.8376 7.29203 24.0662 7.29203Z" fill="white"/>
<path fill-rule="evenodd" clip-rule="evenodd" d="M24.0661 12.011C26.1025 12.011 28.1036 12.5632 29.9986 13.6146L31.7211 11.7102C29.3138 10.2212 26.7238 9.43665 24.0661 9.43665C21.4114 9.43665 18.8214 10.2212 16.4111 11.7102L18.1364 13.6146C20.0305 12.5632 22.0295 12.011 24.0661 12.011Z" fill="white"/>
</g>
</svg>
