<svg width="15" height="15" viewBox="0 0 15 15" fill="none" xmlns="http://www.w3.org/2000/svg">
<path fill-rule="evenodd" clip-rule="evenodd" d="M0.00683594 6.56291C0.00683594 2.93812 3.36133 0.000488281 7.49962 0.000488281C11.6377 0.000488281 14.9924 2.93812 14.9924 6.56291C14.9924 10.1875 11.6377 13.1253 7.49962 13.1253C7.21137 13.1253 6.92691 13.1111 6.64713 13.0833L2.8167 15.0004V11.6862C1.10367 10.4836 0.00683594 8.6355 0.00683594 6.56291ZM0.943536 6.56291C0.943536 3.45636 3.87882 0.937604 7.49962 0.937604C11.1204 0.937604 14.0558 3.45636 14.0558 6.56291C14.0558 9.66924 11.1204 12.1878 7.49962 12.1878C7.21361 12.1878 6.93189 12.1721 6.65554 12.1416L3.75328 13.5942V11.1795C2.05481 10.163 0.943536 8.47423 0.943536 6.56291ZM4.22158 5.1567C3.96272 5.1567 3.75328 5.36625 3.75328 5.62536C3.75328 5.88404 3.96272 6.09403 4.22158 6.09403H10.7777C11.0363 6.09403 11.246 5.88404 11.246 5.62536C11.246 5.36625 11.0363 5.1567 10.7777 5.1567H4.22158ZM4.68988 8.43779C4.68988 8.17868 4.89952 7.96912 5.15816 7.96912H9.84108C10.0997 7.96912 10.3094 8.17868 10.3094 8.43779C10.3094 8.69649 10.0997 8.90647 9.84108 8.90647H5.15816C4.89952 8.90647 4.68988 8.69649 4.68988 8.43779Z" fill="black"/>
</svg>
