<svg width="13" height="18" viewBox="0 0 13 18" fill="none" xmlns="http://www.w3.org/2000/svg">
<path fill-rule="evenodd" clip-rule="evenodd" d="M1.08331 -4.39882e-05H11.9166C12.5149 -4.39882e-05 13 0.50362 13 1.12509V16.875C13 17.4963 12.5149 18 11.9166 18H1.08331C0.485008 18 0 17.4963 0 16.875V1.12509C0 0.50362 0.485008 -4.39882e-05 1.08331 -4.39882e-05ZM1.62496 1.12509H11.375C11.6744 1.12509 11.9166 1.37726 11.9166 1.68745V16.3124C11.9166 16.6229 11.6744 16.875 11.375 16.875H6.50002C8.59418 16.875 10.2917 15.1121 10.2917 12.9374C10.2917 10.7628 8.59418 9.00005 6.50002 9.00005C4.40576 9.00005 2.70837 10.7628 2.70837 12.9374C2.70837 15.1121 4.40576 16.875 6.50002 16.875H1.62496C1.32558 16.875 1.08331 16.6229 1.08331 16.3124V1.68745C1.08331 1.37726 1.32558 1.12509 1.62496 1.12509ZM6.50002 2.25004C5.00405 2.25004 3.79166 3.5091 3.79166 5.06203C3.79166 6.61542 5.00405 7.87491 6.50002 7.87491C7.99589 7.87491 9.20838 6.61542 9.20838 5.06203C9.20838 3.5091 7.99589 2.25004 6.50002 2.25004ZM4.87496 5.06203C4.87496 4.13013 5.60235 3.37518 6.50002 3.37518C7.39712 3.37518 8.12498 4.13013 8.12498 5.06203C8.12498 5.9946 7.39712 6.74999 6.50002 6.74999C5.60235 6.74999 4.87496 5.9946 4.87496 5.06203ZM3.79166 12.9374C3.79166 11.384 5.00405 10.125 6.50002 10.125C7.99589 10.125 9.20838 11.384 9.20838 12.9374C9.20838 14.4915 7.99589 15.7499 6.50002 15.7499C5.00405 15.7499 3.79166 14.4915 3.79166 12.9374Z" fill="black"/>
</svg>
