<svg width="15" height="15" viewBox="0 0 15 15" fill="none" xmlns="http://www.w3.org/2000/svg">
<path fill-rule="evenodd" clip-rule="evenodd" d="M7.49971 0C3.35775 0 6.10352e-05 3.35785 6.10352e-05 7.49999C6.10352e-05 11.6423 3.35775 15 7.49971 15C11.642 15 15.0001 11.6423 15.0001 7.49999C15.0001 3.35785 11.642 0 7.49971 0ZM11.5359 3.46567L11.5341 3.46392C11.5347 3.46457 11.5354 3.465 11.5359 3.46567ZM1.79346 7.49999C1.79346 4.34822 4.34836 1.79338 7.49971 1.79338C8.86992 1.79338 10.1272 2.27682 11.1111 3.082L3.08195 11.1111C2.27686 10.1274 1.79346 8.87011 1.79346 7.49999ZM3.46407 11.5343L3.46567 11.5358C3.46499 11.5352 3.46465 11.5347 3.46407 11.5343ZM7.49971 13.2064C6.1294 13.2064 4.8725 12.7229 3.88887 11.9182L11.9182 3.88868C12.7231 4.87253 13.2065 6.12963 13.2065 7.49999C13.2065 10.6515 10.6517 13.2064 7.49971 13.2064Z" fill="white"/>
</svg>
