<svg width="12" height="18" viewBox="0 0 12 18" fill="none" xmlns="http://www.w3.org/2000/svg">
<path fill-rule="evenodd" clip-rule="evenodd" d="M5.97541 13.2719C8.07539 13.2719 9.77806 11.6079 9.77806 9.55584V4.24704C9.77806 2.19412 8.07539 0.53096 5.97541 0.53096C3.87519 0.53096 2.17288 2.19412 2.17288 4.24704V9.55584C2.17288 11.6079 3.87519 13.2719 5.97541 13.2719ZM3.25939 4.24704C3.25939 2.78082 4.4752 1.59262 5.97541 1.59262C7.4754 1.59262 8.69155 2.78082 8.69155 4.24704V9.55584C8.69155 11.0218 7.4754 12.21 5.97541 12.21C4.4752 12.21 3.25939 11.0218 3.25939 9.55584V4.24704ZM10.8644 9.02434V10.0867C10.8644 12.432 8.91861 14.3338 6.51867 14.3338H5.43227C3.03199 14.3338 1.08649 12.432 1.08649 10.0867V9.02434H-5.00679e-06V10.0867C-5.00679e-06 13.0178 2.43209 15.3953 5.43227 15.3953V16.4572H4.88902C4.58908 16.4572 4.34577 16.6941 4.34577 16.988C4.34577 17.281 4.58908 17.5188 4.88902 17.5188H5.43227H6.51867H7.06192C7.36186 17.5188 7.60516 17.281 7.60516 16.988C7.60516 16.6941 7.36186 16.4572 7.06192 16.4572H6.51867V15.3953C9.51885 15.3953 11.9509 13.0178 11.9509 10.0867V9.02434H10.8644Z" fill="#111111"/>
</svg>
