<svg width="12" height="14" viewBox="0 0 12 14" fill="none" xmlns="http://www.w3.org/2000/svg">
<path fill-rule="evenodd" clip-rule="evenodd" d="M9.75004 9.33343C9.23471 9.33343 8.76126 9.51494 8.38178 9.81752L4.46745 7.3818C4.48713 7.25726 4.49994 7.1303 4.49994 7.0001C4.49994 6.86945 4.48713 6.74272 4.46745 6.61794L8.38178 4.18243C8.76126 4.48503 9.23471 4.66675 9.75004 4.66675C10.9925 4.66675 12 3.62182 12 2.33341C12 1.04479 10.9925 7.60555e-05 9.75004 7.60555e-05C8.50755 7.60555e-05 7.50002 1.04479 7.50002 2.33341C7.50002 2.46363 7.51283 2.59057 7.53286 2.71513L3.6184 5.15086C3.23903 4.84827 2.76559 4.66675 2.25004 4.66675C1.00756 4.66675 2.00272e-05 5.71148 2.00272e-05 7.0001C2.00272e-05 8.28849 1.00756 9.33343 2.25004 9.33343C2.76559 9.33343 3.23903 9.1517 3.6184 8.8491L7.53286 11.2846C7.51283 11.4094 7.50002 11.5361 7.50002 11.6668C7.50002 12.9552 8.50755 14.0001 9.75004 14.0001C10.9925 14.0001 12 12.9552 12 11.6668C12 10.3782 10.9925 9.33343 9.75004 9.33343Z" fill="white"/>
</svg>
