<svg width="15" height="16" viewBox="0 0 15 16" fill="none" xmlns="http://www.w3.org/2000/svg">
<path fill-rule="evenodd" clip-rule="evenodd" d="M7.00083 -0.000193C3.31389 -0.000193 2.49438 2.28532 2.49438 5.10406C2.49438 5.23564 2.49829 5.36777 2.50601 5.50012H2.49885C2.49885 5.50012 2.49885 9.99964 1.49805 9.99964H4.51779C4.7572 10.2134 5.01496 10.3987 5.2895 10.5494C4.44163 10.7566 1.1985 11.5683 0.770902 11.9693C-0.0109642 12.7014 -0.328088 14.9015 0.454246 15.9999H13.5519C14.3284 14.9015 14.0195 12.7014 13.2431 11.9693C12.8329 11.5819 9.55913 10.7573 8.71322 10.549C8.98752 10.3983 9.24507 10.2132 9.48429 9.99964H12.5067C11.5059 9.99964 11.5059 5.50012 11.5059 5.50012H11.4962C11.504 5.36777 11.5079 5.23564 11.5079 5.10406C11.5079 2.28532 10.6883 -0.000193 7.00083 -0.000193ZM7.99819 10.8492C8.24742 10.775 8.48607 10.6738 8.71322 10.549C8.58654 10.5178 8.5143 10.5005 8.5143 10.5005H7.99819V9.79792C8.41297 9.62526 8.78409 9.34859 9.10546 8.99969H11.0055C10.5051 8.99969 10.5051 5.50012 10.5051 5.50012H10.49C10.4981 5.37348 10.5022 5.24731 10.5022 5.12211C10.5022 2.84289 9.91861 0.99649 7.00083 0.99649C4.0835 0.99649 3.50008 2.84289 3.50008 5.12211C3.50008 5.24731 3.50416 5.37348 3.51224 5.50012H3.49963C3.49963 5.50012 3.49963 8.99969 2.99918 8.99969H4.89658C5.21812 9.34883 5.58946 9.62564 6.00451 9.79827V10.5005H5.49182C5.49182 10.5005 5.41829 10.518 5.2895 10.5494C5.51665 10.6742 5.75529 10.7753 6.00451 10.8494V11.5004H5.61164C3.89788 11.9126 1.87914 12.4867 1.42859 12.7308C1.09728 13.101 0.884194 14.2374 1.08848 15.0002H12.9151C13.119 14.2379 12.9122 13.1058 12.5858 12.7327C12.1284 12.4906 10.1093 11.9165 8.39313 11.5004H7.99819V10.8492Z" fill="#111111"/>
</svg>
