<svg width="17" height="16" viewBox="0 0 17 16" fill="none" xmlns="http://www.w3.org/2000/svg">
<path fill-rule="evenodd" clip-rule="evenodd" d="M0.990288 8.00023V7.50004H1.00568C1.26402 3.31498 4.742 -0.000154972 8.99487 -0.000154972C13.2474 -0.000154972 16.7256 3.31498 16.9839 7.50004H16.9993V8.00023V8.5002H16.9839C16.7257 12.6855 13.2475 16 8.99487 16C4.74192 16 1.26389 12.6855 1.00567 8.5002H0.990288V8.00023ZM2.00844 8.5002C2.07125 9.38971 2.30036 10.2334 2.66489 11.0003H6.21128C6.09284 10.2205 6.01919 9.37955 5.99885 8.5002H2.00844ZM7.42761 14.8245C5.70533 14.431 4.22493 13.4029 3.24578 11.9996H6.39451C6.64522 13.1549 7.00124 14.1276 7.42761 14.8245ZM8.99487 15.0005C8.31464 15.0005 7.7138 13.8135 7.35224 11.9996H10.6374C10.2758 13.8135 9.67489 15.0005 8.99487 15.0005ZM10.5619 14.8246C10.9883 14.1277 11.3443 13.1549 11.5951 11.9996H14.7438C13.7647 13.403 12.2842 14.4311 10.5619 14.8246ZM11.7783 11.0003H15.3247C15.6893 10.2334 15.9184 9.38971 15.9812 8.5002H11.9908C11.9704 9.37955 11.8968 10.2205 11.7783 11.0003ZM7.1863 11.0003H10.8034C10.9075 10.2334 10.973 9.38971 10.9909 8.5002H6.99878C7.01672 9.38971 7.08217 10.2334 7.1863 11.0003ZM10.9909 7.50004H6.99878C7.01673 6.61058 7.08216 5.76701 7.18628 5.00019H10.8034C10.9075 5.76701 10.973 6.61058 10.9909 7.50004ZM10.6373 4.00026H7.35233C7.7139 2.18659 8.31469 1.00001 8.99487 1.00001C9.67483 1.00001 10.2757 2.18659 10.6373 4.00026ZM11.5949 4.00026C11.3443 2.8453 10.9884 1.87281 10.5622 1.17595C12.2842 1.56938 13.7644 2.59717 14.7435 4.00026H11.5949ZM11.7783 5.00019H15.3248C15.6893 5.76701 15.9183 6.61058 15.9812 7.50004H11.9908C11.9704 6.6208 11.8968 5.77996 11.7783 5.00019ZM6.39463 4.00026C6.64528 2.84532 7.00115 1.87284 7.42732 1.17599C5.70535 1.56945 4.2252 2.59722 3.24609 4.00026H6.39463ZM6.21127 5.00019H2.6648C2.30035 5.76701 2.07128 6.61058 2.00845 7.50004H5.99886C6.01921 6.6208 6.09285 5.77996 6.21127 5.00019Z" fill="black"/>
</svg>
